<svg width="465" height="281" fill="none" xmlns="http://www.w3.org/2000/svg"><path d="M9.293 1.773A3 3 0 0112.03 0h213.44a3 3 0 012.737 1.773l8.743 19.5a3 3 0 010 2.454l-8.743 19.5A3 3 0 01225.47 45H12.03a3 3 0 01-2.737-1.773L.55 23.727a3 3 0 010-2.454l8.743-19.5z" fill="#000"/><path d="M37.563 29h-4.714V13.727h4.922c1.482 0 2.75.306 3.804.918 1.054.606 1.861 1.479 2.423 2.617.562 1.134.843 2.49.843 4.072 0 1.59-.284 2.96-.85 4.109a6.057 6.057 0 01-2.476 2.64c-1.084.611-2.401.917-3.953.917zm-2.864-1.64h2.744c1.263 0 2.31-.244 3.14-.731a4.504 4.504 0 001.857-2.081c.407-.9.611-1.971.611-3.214 0-1.233-.201-2.295-.604-3.184-.403-.895-1.004-1.581-1.805-2.059-.8-.482-1.797-.723-2.99-.723h-2.953v11.991zm16.586 1.909c-.726 0-1.384-.137-1.976-.41a3.392 3.392 0 01-1.41-1.201c-.347-.527-.521-1.164-.521-1.91 0-.656.129-1.188.387-1.595a2.737 2.737 0 011.037-.97 5.49 5.49 0 011.432-.522c.527-.12 1.056-.214 1.588-.283.696-.09 1.26-.157 1.693-.201.438-.05.756-.132.955-.247.203-.114.305-.313.305-.596v-.06c0-.736-.201-1.307-.604-1.715-.397-.408-1.002-.612-1.812-.612-.84 0-1.499.184-1.976.552-.477.368-.813.76-1.007 1.179l-1.67-.597c.298-.696.696-1.238 1.193-1.626a4.473 4.473 0 011.64-.82 6.816 6.816 0 011.76-.239c.368 0 .791.045 1.268.134.483.085.947.261 1.395.53.452.268.827.674 1.126 1.216.298.541.447 1.267.447 2.177V29h-1.76v-1.551h-.09c-.119.248-.317.514-.596.798-.278.283-.648.524-1.11.723-.463.199-1.027.299-1.694.299zm.269-1.581c.696 0 1.282-.137 1.76-.41.482-.274.845-.627 1.089-1.06a2.7 2.7 0 00.372-1.364v-1.611c-.074.09-.238.171-.492.246a8.31 8.31 0 01-.865.186c-.323.05-.639.095-.947.135-.303.035-.55.064-.738.09a6.689 6.689 0 00-1.283.29 2.21 2.21 0 00-.955.59c-.238.258-.357.61-.357 1.058 0 .612.226 1.074.678 1.387.458.308 1.037.462 1.738.462zm13.385-10.142v1.49h-5.936v-1.49h5.936zM60.733 14.8h1.76v10.92c0 .497.072.87.216 1.118.15.244.338.408.567.492.234.08.48.12.738.12.194 0 .353-.01.478-.03l.298-.06.358 1.581a3.58 3.58 0 01-.5.135 3.68 3.68 0 01-.813.074 3.55 3.55 0 01-1.461-.32 2.903 2.903 0 01-1.178-.977c-.309-.438-.463-.99-.463-1.656V14.801zm10.434 14.467c-.726 0-1.384-.136-1.976-.41a3.392 3.392 0 01-1.41-1.2c-.348-.527-.522-1.164-.522-1.91 0-.656.13-1.188.388-1.595a2.738 2.738 0 011.037-.97 5.49 5.49 0 011.432-.522c.527-.12 1.056-.214 1.588-.283.696-.09 1.26-.157 1.693-.201.438-.05.756-.132.954-.247.204-.114.306-.313.306-.596v-.06c0-.736-.201-1.307-.604-1.715-.397-.408-1.002-.612-1.812-.612-.84 0-1.499.184-1.976.552-.477.368-.813.76-1.007 1.179l-1.67-.597c.298-.696.696-1.238 1.193-1.626a4.473 4.473 0 011.64-.82 6.815 6.815 0 011.76-.239c.368 0 .79.045 1.268.134.482.085.947.261 1.395.53.452.268.828.674 1.126 1.216.298.541.447 1.267.447 2.177V29h-1.76v-1.551h-.09c-.119.248-.317.514-.596.798-.278.283-.649.524-1.111.723-.462.199-1.027.299-1.693.299zm.269-1.58c.696 0 1.282-.137 1.76-.41.482-.274.845-.627 1.088-1.06.249-.432.373-.887.373-1.364v-1.611c-.074.09-.238.171-.492.246a8.31 8.31 0 01-.865.186c-.323.05-.639.095-.947.135-.303.035-.55.064-.738.09a6.73 6.73 0 00-1.283.29 2.21 2.21 0 00-.955.59c-.238.258-.358.61-.358 1.058 0 .612.227 1.074.68 1.387.457.308 1.036.462 1.737.462zM96.635 18.5a5.39 5.39 0 00-.65-1.35 4.166 4.166 0 00-.946-1.029 3.974 3.974 0 00-1.238-.649 4.935 4.935 0 00-1.521-.223c-.905 0-1.728.233-2.469.7-.74.468-1.33 1.156-1.767 2.066-.438.91-.656 2.026-.656 3.349 0 1.322.22 2.438.663 3.348.443.91 1.042 1.598 1.797 2.066.756.467 1.606.7 2.55.7.876 0 1.647-.186 2.313-.559a3.966 3.966 0 001.566-1.596c.378-.69.567-1.503.567-2.438l.566.12h-4.593v-1.641h5.816v1.64c0 1.258-.268 2.352-.805 3.281a5.565 5.565 0 01-2.207 2.163c-.935.507-2.009.76-3.222.76-1.352 0-2.54-.317-3.565-.954-1.019-.636-1.814-1.54-2.386-2.714-.567-1.174-.85-2.566-.85-4.176 0-1.209.161-2.295.484-3.26.329-.969.791-1.794 1.388-2.475a6.064 6.064 0 012.118-1.566c.815-.363 1.712-.545 2.692-.545.805 0 1.556.122 2.252.366.7.239 1.325.58 1.871 1.021a5.816 5.816 0 011.38 1.574 5.97 5.97 0 01.76 2.021h-1.908zm9.791 10.739c-1.035 0-1.942-.247-2.722-.739-.776-.492-1.382-1.18-1.82-2.065-.433-.885-.649-1.92-.649-3.103 0-1.193.216-2.234.649-3.124.438-.89 1.044-1.581 1.82-2.073.78-.493 1.687-.739 2.722-.739 1.034 0 1.938.246 2.714.739.781.492 1.387 1.183 1.82 2.073.437.89.656 1.931.656 3.124 0 1.184-.219 2.218-.656 3.103-.433.885-1.039 1.573-1.82 2.065-.776.492-1.68.739-2.714.739zm0-1.581c.785 0 1.431-.202 1.938-.604.508-.403.883-.933 1.127-1.589a6.095 6.095 0 00.365-2.133c0-.765-.122-1.479-.365-2.14-.244-.661-.619-1.196-1.127-1.603-.507-.408-1.153-.612-1.938-.612-.786 0-1.432.204-1.939.612-.507.407-.883.942-1.126 1.603a6.135 6.135 0 00-.366 2.14c0 .766.122 1.477.366 2.133a3.557 3.557 0 001.126 1.589c.507.402 1.153.604 1.939.604zm17.043-10.113L119.233 29h-1.79l-4.236-11.454h1.909l3.162 9.127h.12l3.162-9.127h1.909zm6.925 11.694c-1.104 0-2.056-.244-2.856-.731-.795-.492-1.409-1.178-1.842-2.058-.428-.885-.641-1.915-.641-3.088s.213-2.207.641-3.102c.433-.9 1.034-1.6 1.805-2.103.775-.507 1.68-.76 2.714-.76.597 0 1.186.099 1.768.298a4.38 4.38 0 011.588.97c.477.442.858 1.028 1.141 1.759.283.73.425 1.63.425 2.7v.745h-8.83v-1.521h7.04c0-.646-.129-1.223-.388-1.73a2.918 2.918 0 00-1.088-1.2c-.468-.294-1.019-.44-1.656-.44-.701 0-1.307.173-1.819.521-.508.343-.898.79-1.171 1.343a3.936 3.936 0 00-.41 1.774v1.015c0 .865.149 1.598.447 2.2.303.596.723 1.051 1.26 1.364.537.309 1.161.463 1.872.463.462 0 .88-.065 1.253-.194.378-.134.703-.333.977-.597.273-.268.485-.601.634-1l1.7.478a3.776 3.776 0 01-.902 1.521 4.407 4.407 0 01-1.566 1.015c-.622.238-1.32.358-2.096.358zm7.63-.239V17.546h1.701v1.73h.119c.209-.567.586-1.027 1.133-1.38a3.339 3.339 0 011.85-.53c.129 0 .291.003.485.008.193.005.34.012.44.022v1.79a5.279 5.279 0 00-.411-.067 4.027 4.027 0 00-.663-.052c-.557 0-1.054.117-1.492.35a2.65 2.65 0 00-1.029.955 2.569 2.569 0 00-.373 1.38V29h-1.76zm9.784-6.89V29h-1.76V17.546h1.7v1.79h.149a3.274 3.274 0 011.223-1.403c.547-.358 1.253-.537 2.118-.537.776 0 1.454.16 2.036.478.582.313 1.034.79 1.357 1.431.323.637.485 1.442.485 2.417V29h-1.76v-7.16c0-.899-.234-1.6-.701-2.102-.467-.507-1.109-.76-1.924-.76-.562 0-1.064.121-1.506.365a2.613 2.613 0 00-1.037 1.066c-.254.467-.38 1.034-.38 1.7zm14.105 7.159c-.726 0-1.385-.137-1.977-.41a3.394 3.394 0 01-1.409-1.201c-.348-.527-.522-1.164-.522-1.91 0-.656.129-1.188.388-1.595a2.736 2.736 0 011.036-.97 5.46 5.46 0 011.432-.522c.527-.12 1.057-.214 1.589-.283.696-.09 1.26-.157 1.692-.201.438-.05.756-.132.955-.247.204-.114.306-.313.306-.596v-.06c0-.736-.202-1.307-.604-1.715-.398-.408-1.002-.612-1.813-.612-.84 0-1.498.184-1.976.552-.477.368-.813.76-1.006 1.179l-1.671-.597c.298-.696.696-1.238 1.193-1.626a4.47 4.47 0 011.641-.82 6.81 6.81 0 011.76-.239c.368 0 .79.045 1.268.134.482.085.947.261 1.394.53.453.268.828.674 1.126 1.216.298.541.448 1.267.448 2.177V29h-1.76v-1.551h-.09c-.119.248-.318.514-.596.798-.279.283-.649.524-1.112.723-.462.199-1.026.299-1.692.299zm.268-1.581c.696 0 1.283-.137 1.76-.41.482-.274.845-.627 1.089-1.06.248-.432.373-.887.373-1.364v-1.611c-.075.09-.239.171-.493.246a7.96 7.96 0 01-.865.186c-.323.05-.638.095-.947.135a37.36 37.36 0 00-.738.09 6.706 6.706 0 00-1.283.29 2.21 2.21 0 00-.954.59c-.239.258-.358.61-.358 1.058 0 .612.226 1.074.679 1.387.457.308 1.036.462 1.737.462zm10.164-5.579V29h-1.76V17.546h1.7v1.79h.149a3.274 3.274 0 011.223-1.403c.547-.358 1.253-.537 2.118-.537.776 0 1.454.16 2.036.478.582.313 1.034.79 1.357 1.431.324.637.485 1.442.485 2.417V29h-1.76v-7.16c0-.899-.234-1.6-.701-2.102-.467-.507-1.109-.76-1.924-.76-.562 0-1.064.121-1.506.365a2.613 2.613 0 00-1.037 1.066c-.253.467-.38 1.034-.38 1.7zm15.387 7.13c-1.073 0-1.998-.254-2.774-.761-.775-.507-1.372-1.206-1.789-2.096-.418-.89-.627-1.906-.627-3.05 0-1.163.214-2.19.641-3.08.433-.894 1.035-1.593 1.805-2.095.776-.507 1.681-.76 2.715-.76.805 0 1.531.149 2.177.447a4.168 4.168 0 011.589 1.253c.412.537.668 1.163.768 1.879h-1.76c-.134-.522-.433-.985-.895-1.387-.457-.408-1.074-.612-1.85-.612-.686 0-1.287.18-1.804.537-.512.353-.912.853-1.201 1.5-.283.64-.425 1.394-.425 2.259 0 .885.139 1.655.418 2.311.283.657.681 1.166 1.193 1.53.517.362 1.123.544 1.819.544.458 0 .873-.08 1.246-.239.373-.16.688-.388.947-.686a2.64 2.64 0 00.552-1.074h1.76a4.083 4.083 0 01-.739 1.827 4.12 4.12 0 01-1.543 1.283c-.637.313-1.377.47-2.223.47zm12.09 0c-1.104 0-2.056-.244-2.856-.731-.796-.492-1.41-1.178-1.842-2.058-.428-.885-.641-1.915-.641-3.088s.213-2.207.641-3.102c.432-.9 1.034-1.6 1.805-2.103.775-.507 1.68-.76 2.714-.76.597 0 1.186.099 1.768.298a4.38 4.38 0 011.588.97c.477.442.858 1.028 1.141 1.759.283.73.425 1.63.425 2.7v.745h-8.83v-1.521h7.04c0-.646-.129-1.223-.388-1.73a2.918 2.918 0 00-1.088-1.2c-.468-.294-1.02-.44-1.656-.44-.701 0-1.307.173-1.819.521-.508.343-.898.79-1.171 1.343a3.936 3.936 0 00-.41 1.774v1.015c0 .865.149 1.598.447 2.2.303.596.723 1.051 1.26 1.364.537.309 1.161.463 1.872.463.462 0 .88-.065 1.253-.194.378-.134.703-.333.977-.597.273-.268.485-.601.634-1l1.7.478a3.776 3.776 0 01-.902 1.521 4.407 4.407 0 01-1.566 1.015c-.622.238-1.32.358-2.096.358z" fill="#fff"/><path d="M94.293 60.773A3 3 0 0197.03 59h255.44a3 3 0 012.737 1.773l8.743 19.5a3 3 0 010 2.454l-8.743 19.5A3 3 0 01352.47 104H97.03a3 3 0 01-2.737-1.773l-8.743-19.5a3 3 0 010-2.454l8.743-19.5z" fill="#000"/><path d="M121.562 88h-4.713V72.727h4.922c1.482 0 2.75.306 3.804.917 1.054.607 1.861 1.48 2.423 2.618.562 1.134.843 2.49.843 4.072 0 1.59-.283 2.96-.85 4.109a6.064 6.064 0 01-2.476 2.64c-1.084.611-2.401.917-3.953.917zm-2.863-1.64h2.744c1.263 0 2.309-.244 3.14-.731a4.508 4.508 0 001.857-2.081c.407-.9.611-1.971.611-3.214 0-1.233-.201-2.295-.604-3.184-.403-.895-1.004-1.582-1.805-2.059-.8-.482-1.797-.723-2.99-.723h-2.953v11.991zm16.586 1.909c-.726 0-1.384-.137-1.976-.41a3.388 3.388 0 01-1.409-1.201c-.348-.527-.522-1.164-.522-1.91 0-.656.129-1.188.387-1.595a2.74 2.74 0 011.037-.97 5.46 5.46 0 011.432-.522c.527-.12 1.056-.214 1.588-.283a65.65 65.65 0 011.693-.201c.438-.05.756-.132.955-.247.203-.114.305-.313.305-.596v-.06c0-.736-.201-1.307-.604-1.715-.397-.408-1.001-.612-1.812-.612-.84 0-1.499.184-1.976.552-.477.368-.813.76-1.007 1.179l-1.67-.597c.298-.696.696-1.238 1.193-1.626a4.47 4.47 0 011.641-.82 6.81 6.81 0 011.759-.239c.368 0 .791.045 1.268.135.482.084.947.26 1.395.529.452.269.828.674 1.126 1.216.298.541.447 1.267.447 2.177V88h-1.76v-1.551h-.089c-.119.248-.318.514-.597.798-.278.283-.649.524-1.111.723-.462.199-1.027.299-1.693.299zm.269-1.582c.696 0 1.282-.136 1.76-.41.482-.273.845-.626 1.088-1.059.249-.432.373-.887.373-1.364v-1.611c-.074.09-.238.171-.492.246a8.28 8.28 0 01-.865.186c-.323.05-.639.095-.947.135-.303.034-.549.064-.738.09a6.689 6.689 0 00-1.283.29c-.393.13-.711.326-.954.59-.239.258-.358.61-.358 1.058 0 .612.226 1.074.678 1.387.458.308 1.037.463 1.738.463zm13.385-10.141v1.49h-5.936v-1.49h5.936zm-4.206-2.745h1.76V84.72c0 .497.072.87.216 1.118.149.244.338.408.567.492.234.08.48.12.738.12.194 0 .353-.01.478-.03l.298-.06.358 1.581c-.119.045-.286.09-.5.135-.214.05-.484.074-.813.074a3.55 3.55 0 01-1.461-.32 2.906 2.906 0 01-1.179-.977c-.308-.438-.462-.99-.462-1.656V73.801zm10.434 14.468c-.726 0-1.384-.137-1.976-.41a3.388 3.388 0 01-1.409-1.201c-.348-.527-.522-1.164-.522-1.91 0-.656.129-1.188.387-1.595a2.74 2.74 0 011.037-.97 5.49 5.49 0 011.432-.522c.527-.12 1.056-.214 1.588-.283.696-.09 1.26-.157 1.693-.201.437-.05.756-.132.955-.247.203-.114.305-.313.305-.596v-.06c0-.736-.201-1.307-.604-1.715-.398-.408-1.002-.612-1.812-.612-.84 0-1.499.184-1.976.552-.477.368-.813.76-1.007 1.179l-1.67-.597c.298-.696.696-1.238 1.193-1.626a4.474 4.474 0 011.64-.82 6.822 6.822 0 011.76-.239c.368 0 .791.045 1.268.135.482.084.947.26 1.395.529.452.269.827.674 1.126 1.216.298.541.447 1.267.447 2.177V88h-1.76v-1.551h-.089c-.12.248-.318.514-.597.798-.278.283-.649.524-1.111.723-.462.199-1.027.299-1.693.299zm.269-1.582c.696 0 1.282-.136 1.76-.41.482-.273.845-.626 1.088-1.059.249-.432.373-.887.373-1.364v-1.611c-.074.09-.238.171-.492.246-.249.07-.537.132-.865.186-.323.05-.639.095-.947.135-.303.034-.549.064-.738.09a6.689 6.689 0 00-1.283.29c-.393.13-.711.326-.955.59-.238.258-.358.61-.358 1.058 0 .612.227 1.074.679 1.387.457.308 1.037.463 1.738.463zm14.966-6.055v1.64h-6.682v-1.64h6.682zm15.835-3.132h-1.849c-.11-.532-.301-1-.575-1.402a3.811 3.811 0 00-.984-1.014 4.183 4.183 0 00-1.275-.627 5.1 5.1 0 00-1.462-.208 4.66 4.66 0 00-2.513.7c-.746.468-1.34 1.157-1.782 2.066-.438.91-.657 2.026-.657 3.349 0 1.322.219 2.438.657 3.348.442.91 1.036 1.598 1.782 2.066a4.659 4.659 0 002.513.7 5.1 5.1 0 001.462-.208 4.28 4.28 0 001.275-.62 3.917 3.917 0 001.559-2.423h1.849a6.155 6.155 0 01-.761 2.096 5.71 5.71 0 01-1.372 1.573 6.01 6.01 0 01-1.842.977 6.863 6.863 0 01-2.17.336c-1.302 0-2.461-.318-3.475-.955-1.014-.636-1.812-1.54-2.394-2.714-.581-1.174-.872-2.566-.872-4.176 0-1.611.291-3.003.872-4.177.582-1.173 1.38-2.078 2.394-2.714 1.014-.636 2.173-.954 3.475-.954.771 0 1.494.111 2.17.335a5.927 5.927 0 011.842.984c.547.428 1.005.95 1.372 1.567.368.611.622 1.31.761 2.095zM194 88.239c-1.104 0-2.056-.244-2.857-.731-.795-.492-1.409-1.178-1.842-2.058-.427-.885-.641-1.915-.641-3.088s.214-2.207.641-3.102c.433-.9 1.034-1.6 1.805-2.103.776-.507 1.68-.76 2.715-.76.596 0 1.185.099 1.767.298a4.372 4.372 0 011.588.97c.478.441.858 1.028 1.141 1.759.284.73.425 1.63.425 2.7v.745h-8.829v-1.521h7.04c0-.646-.13-1.223-.388-1.73a2.928 2.928 0 00-1.089-1.2c-.467-.294-1.019-.44-1.655-.44-.701 0-1.308.173-1.82.521a3.44 3.44 0 00-1.171 1.343 3.95 3.95 0 00-.41 1.775v1.014c0 .865.149 1.598.447 2.2.304.596.724 1.051 1.261 1.364.537.309 1.161.463 1.872.463.462 0 .879-.065 1.252-.194.378-.135.704-.333.977-.597a2.69 2.69 0 00.634-1l1.7.478a3.765 3.765 0 01-.902 1.522 4.4 4.4 0 01-1.566 1.014c-.621.238-1.32.358-2.095.358zm9.39-7.13V88h-1.76V76.546h1.7v1.79h.149a3.274 3.274 0 011.223-1.403c.547-.358 1.253-.537 2.118-.537.776 0 1.454.16 2.036.478.582.313 1.034.79 1.357 1.431.323.637.485 1.442.485 2.417V88h-1.76v-7.16c0-.899-.234-1.6-.701-2.102-.467-.507-1.109-.76-1.924-.76a3.07 3.07 0 00-1.507.365 2.61 2.61 0 00-1.036 1.066c-.254.467-.38 1.034-.38 1.7zm15.715-4.563v1.49h-5.936v-1.49h5.936zm-4.206-2.745h1.76V84.72c0 .497.072.87.217 1.118.149.244.338.408.566.492.234.08.48.12.739.12.194 0 .353-.01.477-.03l.298-.06.358 1.581c-.119.045-.286.09-.5.135-.213.05-.484.074-.812.074a3.54 3.54 0 01-1.462-.32 2.903 2.903 0 01-1.178-.977c-.309-.438-.463-.99-.463-1.656V73.801zM221.963 88V76.546h1.7v1.73h.119c.209-.567.587-1.027 1.134-1.38a3.335 3.335 0 011.849-.53c.13 0 .291.003.485.008s.341.012.44.022v1.79a5.221 5.221 0 00-.41-.067 4.039 4.039 0 00-.664-.052 3.12 3.12 0 00-1.491.35 2.636 2.636 0 00-1.029.955 2.569 2.569 0 00-.373 1.38V88h-1.76zm8.023 0V76.546h1.76V88h-1.76zm.895-13.364a1.25 1.25 0 01-.887-.35 1.125 1.125 0 01-.366-.843c0-.328.122-.609.366-.843a1.25 1.25 0 01.887-.35c.343 0 .636.117.88.35.249.234.373.515.373.843 0 .328-.124.61-.373.843-.244.233-.537.35-.88.35zm8.952 13.603c-1.074 0-1.999-.254-2.774-.761-.776-.507-1.372-1.206-1.79-2.096-.418-.89-.626-1.906-.626-3.05 0-1.163.213-2.19.641-3.08.433-.894 1.034-1.593 1.805-2.095.775-.507 1.68-.76 2.714-.76.806 0 1.531.148 2.178.447a4.165 4.165 0 011.588 1.253 3.9 3.9 0 01.768 1.879h-1.76c-.134-.522-.432-.984-.895-1.387-.457-.408-1.073-.612-1.849-.612-.686 0-1.288.18-1.805.537-.512.353-.912.853-1.2 1.5-.284.64-.425 1.394-.425 2.259 0 .885.139 1.655.417 2.312.284.656.681 1.165 1.193 1.528.517.363 1.124.545 1.82.545.457 0 .873-.08 1.245-.239.373-.16.689-.388.947-.686a2.62 2.62 0 00.552-1.074h1.76a4.07 4.07 0 01-.738 1.827 4.123 4.123 0 01-1.544 1.283c-.636.313-1.377.47-2.222.47zm21.994-11.694a2.338 2.338 0 00-1.089-1.76c-.636-.417-1.416-.626-2.341-.626-.676 0-1.268.11-1.775.328-.502.219-.895.52-1.178.903a2.16 2.16 0 00-.418 1.305c0 .407.097.758.291 1.051.199.288.452.53.761.724.308.188.631.345.969.47.338.119.649.216.932.29l1.551.418c.398.104.841.248 1.328.432.492.184.962.435 1.409.754.453.313.825.715 1.119 1.207.293.493.44 1.097.44 1.813 0 .825-.216 1.57-.649 2.237-.428.666-1.054 1.196-1.879 1.588-.821.393-1.817.59-2.991.59-1.093 0-2.041-.177-2.841-.53-.795-.353-1.422-.845-1.879-1.477-.453-.631-.709-1.364-.768-2.2h1.909c.049.577.243 1.055.581 1.432a3.15 3.15 0 001.298.835 5.253 5.253 0 001.7.269c.706 0 1.34-.114 1.902-.343.562-.234 1.007-.557 1.335-.97.328-.417.492-.904.492-1.461 0-.507-.142-.92-.425-1.238-.283-.318-.656-.577-1.119-.776a11.72 11.72 0 00-1.499-.522l-1.879-.537c-1.193-.343-2.138-.832-2.834-1.469-.696-.636-1.044-1.469-1.044-2.498 0-.855.231-1.6.694-2.237.467-.641 1.094-1.139 1.879-1.492.791-.358 1.673-.537 2.647-.537.985 0 1.86.177 2.625.53.766.348 1.373.825 1.82 1.432a3.57 3.57 0 01.716 2.066h-1.79zm9.813 11.694c-1.103 0-2.055-.244-2.856-.731-.795-.492-1.409-1.178-1.842-2.058-.427-.885-.641-1.915-.641-3.088s.214-2.207.641-3.102c.433-.9 1.034-1.6 1.805-2.103.776-.507 1.68-.76 2.714-.76.597 0 1.186.099 1.768.298a4.372 4.372 0 011.588.97c.478.441.858 1.028 1.141 1.759.284.73.425 1.63.425 2.7v.745h-8.829v-1.521h7.04c0-.646-.13-1.223-.388-1.73a2.928 2.928 0 00-1.089-1.2c-.467-.294-1.019-.44-1.656-.44-.701 0-1.307.173-1.819.521a3.44 3.44 0 00-1.171 1.343 3.95 3.95 0 00-.41 1.775v1.014c0 .865.149 1.598.447 2.2.304.596.724 1.051 1.261 1.364.537.309 1.161.463 1.871.463.463 0 .88-.065 1.253-.194.378-.135.704-.333.977-.597a2.69 2.69 0 00.634-1l1.7.478a3.765 3.765 0 01-.902 1.522c-.423.432-.945.77-1.566 1.014-.621.238-1.32.358-2.096.358zm12.284 0c-1.074 0-1.999-.254-2.774-.761-.776-.507-1.372-1.206-1.79-2.096-.418-.89-.626-1.906-.626-3.05 0-1.163.213-2.19.641-3.08.432-.894 1.034-1.593 1.805-2.095.775-.507 1.68-.76 2.714-.76.806 0 1.531.148 2.178.447a4.173 4.173 0 011.588 1.253 3.9 3.9 0 01.768 1.879h-1.76c-.134-.522-.432-.984-.895-1.387-.457-.408-1.073-.612-1.849-.612-.686 0-1.288.18-1.805.537-.512.353-.912.853-1.2 1.5-.284.64-.425 1.394-.425 2.259 0 .885.139 1.655.417 2.312.284.656.681 1.165 1.193 1.528.517.363 1.124.545 1.82.545.457 0 .872-.08 1.245-.239.373-.16.689-.388.947-.686a2.62 2.62 0 00.552-1.074h1.76a4.07 4.07 0 01-.738 1.827 4.123 4.123 0 01-1.544 1.283c-.636.313-1.377.47-2.222.47zm14.506-4.922v-6.771h1.76V88h-1.76v-1.939h-.12c-.268.582-.686 1.076-1.252 1.484-.567.403-1.283.604-2.148.604-.716 0-1.352-.156-1.909-.47-.557-.318-.995-.795-1.313-1.431-.318-.642-.477-1.45-.477-2.424v-7.278h1.76v7.158c0 .836.234 1.502.701 2 .472.496 1.074.745 1.805.745a3 3 0 001.335-.336 2.91 2.91 0 001.148-1.029c.313-.462.47-1.051.47-1.767zM303.623 88V76.546h1.7v1.73h.12c.209-.567.586-1.027 1.133-1.38a3.339 3.339 0 011.85-.53c.129 0 .291.003.484.008.194.005.341.012.44.022v1.79a5.134 5.134 0 00-.41-.067 4.035 4.035 0 00-.663-.052c-.557 0-1.054.117-1.492.35a2.65 2.65 0 00-1.029.955 2.569 2.569 0 00-.373 1.38V88h-1.76zm8.024 0V76.546h1.76V88h-1.76zm.895-13.364c-.343 0-.639-.117-.888-.35a1.128 1.128 0 01-.365-.843c0-.328.122-.609.365-.843.249-.233.545-.35.888-.35.343 0 .636.117.88.35.248.234.372.515.372.843 0 .328-.124.61-.372.843-.244.233-.537.35-.88.35zm9.28 1.91v1.49h-5.936v-1.49h5.936zm-4.206-2.745h1.76V84.72c0 .497.072.87.216 1.118.149.244.338.408.567.492.233.08.479.12.738.12.194 0 .353-.01.477-.03l.298-.06.358 1.581c-.119.045-.285.09-.499.135a3.67 3.67 0 01-.813.074c-.497 0-.984-.107-1.462-.32a2.903 2.903 0 01-1.178-.977c-.308-.438-.462-.99-.462-1.656V73.801zm8.196 18.495c-.298 0-.564-.025-.797-.075a2.152 2.152 0 01-.485-.134l.447-1.552c.428.11.806.15 1.134.12.328-.03.619-.177.872-.44.259-.259.495-.679.709-1.26l.328-.895-4.236-11.514h1.909l3.162 9.127h.119l3.162-9.127h1.909l-4.862 13.124c-.219.592-.489 1.082-.813 1.47a3.042 3.042 0 01-1.126.872 3.47 3.47 0 01-1.432.284z" fill="#fff"/><path d="M169.293 178.773A3 3 0 01172.03 177h179.94a3 3 0 012.737 1.773l8.743 19.5c.35.78.35 1.674 0 2.454l-8.743 19.5A3 3 0 01351.97 222H172.03a3 3 0 01-2.737-1.773l-8.743-19.5a2.999 2.999 0 010-2.454l8.743-19.5z" fill="#000"/><path d="M199.562 206h-4.713v-15.273h4.922c1.482 0 2.75.306 3.804.918 1.054.606 1.861 1.479 2.423 2.617.562 1.134.843 2.491.843 4.072 0 1.591-.283 2.96-.85 4.109a6.064 6.064 0 01-2.476 2.64c-1.084.611-2.401.917-3.953.917zm-2.863-1.641h2.744c1.263 0 2.309-.243 3.14-.73a4.511 4.511 0 001.857-2.081c.407-.9.611-1.971.611-3.214 0-1.233-.201-2.295-.604-3.184-.403-.895-1.004-1.581-1.805-2.059-.8-.482-1.797-.723-2.99-.723h-2.953v11.991zm16.586 1.909c-.726 0-1.384-.136-1.976-.41a3.383 3.383 0 01-1.409-1.2c-.348-.527-.522-1.164-.522-1.909 0-.657.129-1.189.387-1.596a2.74 2.74 0 011.037-.97c.433-.233.91-.407 1.432-.522a17.32 17.32 0 011.588-.283c.696-.09 1.261-.157 1.693-.202.438-.049.756-.131.955-.246.203-.114.305-.313.305-.596v-.06c0-.736-.201-1.307-.604-1.715-.397-.408-1.001-.612-1.812-.612-.84 0-1.499.184-1.976.552-.477.368-.813.761-1.007 1.179l-1.67-.597c.298-.696.696-1.238 1.193-1.626a4.463 4.463 0 011.641-.82 6.81 6.81 0 011.759-.239c.368 0 .791.045 1.268.135.482.084.947.261 1.395.529.452.268.828.674 1.126 1.216.298.541.447 1.267.447 2.177V206h-1.76v-1.551h-.089c-.119.248-.318.514-.597.798-.278.283-.649.524-1.111.723-.462.199-1.027.298-1.693.298zm.269-1.58c.696 0 1.282-.137 1.76-.411.482-.273.845-.626 1.088-1.059.249-.432.373-.887.373-1.364v-1.611c-.074.089-.238.171-.492.246-.248.07-.537.132-.865.186-.323.05-.639.095-.947.135-.303.034-.549.064-.738.089-.458.06-.885.157-1.283.291a2.206 2.206 0 00-.954.589c-.239.259-.358.612-.358 1.059 0 .612.226 1.074.678 1.387.458.308 1.037.463 1.738.463zm13.385-10.143v1.492h-5.936v-1.492h5.936zm-4.206-2.744h1.76v10.918c0 .497.072.87.216 1.118.149.244.338.408.567.493.234.079.48.119.738.119.194 0 .353-.01.478-.03l.298-.06.358 1.581c-.119.045-.286.09-.5.135a3.724 3.724 0 01-.813.074c-.497 0-.984-.107-1.461-.321a2.902 2.902 0 01-1.179-.976c-.308-.438-.462-.99-.462-1.656v-11.395zm10.434 14.467c-.726 0-1.384-.136-1.976-.41a3.383 3.383 0 01-1.409-1.2c-.348-.527-.522-1.164-.522-1.909 0-.657.129-1.189.387-1.596a2.74 2.74 0 011.037-.97 5.49 5.49 0 011.432-.522 17.32 17.32 0 011.588-.283c.696-.09 1.26-.157 1.693-.202.437-.049.756-.131.955-.246.203-.114.305-.313.305-.596v-.06c0-.736-.201-1.307-.604-1.715-.398-.408-1.002-.612-1.812-.612-.84 0-1.499.184-1.976.552-.477.368-.813.761-1.007 1.179l-1.67-.597c.298-.696.696-1.238 1.193-1.626a4.467 4.467 0 011.64-.82 6.823 6.823 0 011.76-.239c.368 0 .791.045 1.268.135.482.084.947.261 1.395.529.452.268.827.674 1.126 1.216.298.541.447 1.267.447 2.177V206h-1.76v-1.551h-.089c-.12.248-.318.514-.597.798-.278.283-.649.524-1.111.723-.462.199-1.027.298-1.693.298zm.269-1.58c.696 0 1.282-.137 1.76-.411.482-.273.845-.626 1.088-1.059.249-.432.373-.887.373-1.364v-1.611c-.074.089-.238.171-.492.246-.249.07-.537.132-.865.186-.323.05-.639.095-.947.135-.303.034-.549.064-.738.089-.458.06-.885.157-1.283.291a2.216 2.216 0 00-.955.589c-.238.259-.358.612-.358 1.059 0 .612.227 1.074.679 1.387.457.308 1.037.463 1.738.463zm23.111-10.143a2.342 2.342 0 00-1.089-1.759c-.637-.418-1.417-.627-2.342-.627-.676 0-1.268.109-1.775.328-.502.219-.895.52-1.178.903a2.162 2.162 0 00-.418 1.305c0 .407.097.758.291 1.051.199.288.453.53.761.723.308.189.631.346.969.47.339.12.649.217.933.291l1.551.418c.397.104.84.248 1.327.432.492.184.962.435 1.41.753.452.314.825.716 1.118 1.209.294.492.44 1.096.44 1.812 0 .825-.216 1.571-.649 2.237-.427.666-1.054 1.196-1.879 1.588-.82.393-1.817.589-2.99.589-1.094 0-2.041-.176-2.842-.529-.795-.353-1.421-.845-1.879-1.477-.452-.631-.708-1.364-.768-2.2h1.909c.05.577.244 1.054.582 1.432.343.373.775.652 1.297.836a5.255 5.255 0 001.701.268c.706 0 1.34-.114 1.901-.343.562-.234 1.007-.557 1.335-.969a2.3 2.3 0 00.492-1.462c0-.507-.141-.92-.425-1.238-.283-.318-.656-.577-1.118-.776a11.9 11.9 0 00-1.499-.522l-1.879-.537c-1.194-.343-2.138-.832-2.834-1.469-.696-.636-1.044-1.469-1.044-2.498 0-.855.231-1.601.693-2.237.468-.641 1.094-1.139 1.88-1.492.79-.358 1.672-.537 2.647-.537.984 0 1.859.177 2.625.53.766.348 1.372.825 1.819 1.432.453.606.692 1.295.716 2.065h-1.789zm9.813 11.694c-1.104 0-2.056-.244-2.856-.731-.796-.492-1.41-1.178-1.842-2.058-.428-.885-.642-1.914-.642-3.088 0-1.173.214-2.207.642-3.102.432-.9 1.034-1.601 1.804-2.103.776-.507 1.681-.761 2.715-.761.596 0 1.186.1 1.767.299a4.378 4.378 0 011.589.969c.477.443.857 1.029 1.141 1.76.283.731.425 1.631.425 2.7v.745h-8.83v-1.521h7.04c0-.646-.129-1.223-.388-1.73a2.92 2.92 0 00-1.089-1.201c-.467-.293-1.019-.44-1.655-.44-.701 0-1.308.174-1.82.522a3.44 3.44 0 00-1.171 1.343 3.944 3.944 0 00-.41 1.774v1.015c0 .865.149 1.598.448 2.2.303.596.723 1.051 1.26 1.364.537.309 1.161.463 1.872.463.462 0 .88-.065 1.253-.194.378-.134.703-.333.977-.597a2.72 2.72 0 00.634-.999l1.7.477a3.76 3.76 0 01-.903 1.521 4.389 4.389 0 01-1.566 1.015c-.621.238-1.32.358-2.095.358zm12.283 0c-1.073 0-1.998-.254-2.774-.761-.775-.507-1.372-1.206-1.79-2.096-.417-.889-.626-1.906-.626-3.05 0-1.163.214-2.19.641-3.08.433-.894 1.034-1.593 1.805-2.095.776-.507 1.68-.761 2.715-.761.805 0 1.531.149 2.177.448a4.174 4.174 0 011.589 1.253c.412.537.668 1.163.768 1.879h-1.76c-.135-.522-.433-.985-.895-1.387-.458-.408-1.074-.612-1.85-.612-.686 0-1.287.179-1.804.537-.512.353-.913.853-1.201 1.499-.283.641-.425 1.395-.425 2.26 0 .885.139 1.655.418 2.312.283.656.681 1.165 1.193 1.528.517.363 1.123.545 1.819.545.458 0 .873-.08 1.246-.239.373-.159.688-.388.947-.686a2.64 2.64 0 00.552-1.074h1.76a4.083 4.083 0 01-.739 1.827 4.118 4.118 0 01-1.543 1.283c-.637.313-1.377.47-2.223.47zm14.506-4.922v-6.772h1.76V206h-1.76v-1.939h-.119c-.269.582-.686 1.076-1.253 1.484-.567.403-1.283.604-2.148.604-.716 0-1.352-.156-1.909-.47-.557-.318-.994-.795-1.312-1.431-.318-.642-.478-1.45-.478-2.424v-7.279h1.76v7.16c0 .835.234 1.501.701 1.998.473.497 1.074.746 1.805.746a2.99 2.99 0 001.335-.336c.457-.223.84-.566 1.148-1.029.314-.462.47-1.051.47-1.767zm5.194 4.683v-11.455h1.7v1.731h.119c.209-.567.587-1.027 1.134-1.38a3.336 3.336 0 011.849-.53c.129 0 .291.003.485.008s.34.012.44.022v1.79a5.383 5.383 0 00-.41-.067 4.018 4.018 0 00-.664-.052 3.12 3.12 0 00-1.491.35 2.647 2.647 0 00-1.03.955 2.576 2.576 0 00-.372 1.379V206h-1.76zm8.023 0v-11.455h1.76V206h-1.76zm.895-13.364c-.343 0-.639-.116-.887-.35a1.127 1.127 0 01-.366-.843c0-.328.122-.609.366-.843.248-.233.544-.35.887-.35.343 0 .636.117.88.35.249.234.373.515.373.843 0 .328-.124.609-.373.843-.244.234-.537.35-.88.35zm9.28 1.909v1.492h-5.936v-1.492h5.936zm-4.206-2.744h1.76v10.918c0 .497.072.87.216 1.118.149.244.338.408.567.493.234.079.48.119.738.119.194 0 .353-.01.478-.03l.298-.06.358 1.581a3.59 3.59 0 01-.5.135 3.73 3.73 0 01-.813.074c-.497 0-.984-.107-1.461-.321a2.902 2.902 0 01-1.179-.976c-.308-.438-.462-.99-.462-1.656v-11.395zm8.197 18.494c-.298 0-.564-.024-.798-.074a2.168 2.168 0 01-.485-.134l.448-1.551c.427.109.805.149 1.133.119.328-.03.619-.177.873-.44.258-.259.494-.679.708-1.26l.328-.895-4.236-11.515h1.91l3.162 9.128h.119l3.162-9.128h1.909l-4.862 13.125c-.219.592-.49 1.082-.813 1.47a3.056 3.056 0 01-1.126.872c-.423.189-.9.283-1.432.283z" fill="#fff"/><path d="M126.293 119.773A3 3 0 01129.03 118h323.94a3 3 0 012.737 1.773l8.743 19.5c.35.78.35 1.674 0 2.454l-8.743 19.5A3 3 0 01452.97 163H129.03a3 3 0 01-2.737-1.773l-8.743-19.5a2.999 2.999 0 010-2.454l8.743-19.5z" fill="#000"/><path d="M161.139 138.5h-1.849a3.865 3.865 0 00-1.559-2.416 4.189 4.189 0 00-1.275-.627 5.1 5.1 0 00-1.462-.208c-.924 0-1.762.233-2.513.701-.746.467-1.34 1.155-1.782 2.065-.438.91-.656 2.026-.656 3.349 0 1.322.218 2.438.656 3.348.442.91 1.036 1.598 1.782 2.066a4.664 4.664 0 002.513.701c.507 0 .995-.07 1.462-.209a4.288 4.288 0 001.275-.619c.388-.278.716-.619.985-1.022.273-.407.464-.875.574-1.402h1.849a6.178 6.178 0 01-.76 2.096 5.727 5.727 0 01-1.373 1.573 5.965 5.965 0 01-1.842.977 6.855 6.855 0 01-2.17.336c-1.302 0-2.461-.318-3.475-.955-1.014-.636-1.812-1.541-2.394-2.714-.581-1.174-.872-2.566-.872-4.176 0-1.611.291-3.003.872-4.176.582-1.174 1.38-2.079 2.394-2.715 1.014-.636 2.173-.955 3.475-.955.771 0 1.494.112 2.17.336a5.919 5.919 0 011.842.984 5.64 5.64 0 011.373 1.566c.367.612.621 1.31.76 2.096zm4.72-4.773V149h-1.76v-15.273h1.76zm8.087 15.512c-1.034 0-1.941-.246-2.722-.739-.776-.492-1.382-1.18-1.82-2.065-.432-.885-.648-1.919-.648-3.103 0-1.193.216-2.234.648-3.124.438-.89 1.044-1.581 1.82-2.073.781-.493 1.688-.739 2.722-.739s1.939.246 2.714.739c.781.492 1.387 1.183 1.82 2.073.438.89.656 1.931.656 3.124 0 1.184-.218 2.218-.656 3.103-.433.885-1.039 1.573-1.82 2.065-.775.493-1.68.739-2.714.739zm0-1.581c.785 0 1.432-.202 1.939-.604.507-.403.882-.933 1.126-1.589a6.07 6.07 0 00.365-2.133c0-.765-.121-1.479-.365-2.14s-.619-1.196-1.126-1.603c-.507-.408-1.154-.612-1.939-.612-.786 0-1.432.204-1.939.612-.507.407-.882.942-1.126 1.603a6.134 6.134 0 00-.365 2.14c0 .766.121 1.477.365 2.133.244.656.619 1.186 1.126 1.589.507.402 1.153.604 1.939.604zm15.306-3.341v-6.772h1.759V149h-1.759v-1.939h-.12c-.268.582-.686 1.076-1.253 1.484-.566.403-1.282.604-2.147.604-.716 0-1.353-.156-1.909-.47-.557-.318-.995-.795-1.313-1.431-.318-.642-.477-1.45-.477-2.424v-7.279h1.76v7.16c0 .835.233 1.501.701 1.998.472.497 1.074.746 1.804.746a2.99 2.99 0 001.335-.336c.458-.223.84-.566 1.149-1.029.313-.462.47-1.051.47-1.767zm9.518 4.922c-.954 0-1.797-.241-2.528-.724-.731-.487-1.302-1.173-1.715-2.058-.413-.89-.619-1.941-.619-3.154 0-1.204.206-2.248.619-3.133.413-.884.987-1.568 1.723-2.05.735-.483 1.586-.724 2.55-.724.746 0 1.335.125 1.767.373.438.244.771.522 1 .835.233.309.415.562.544.761h.149v-5.638h1.76V149h-1.7v-1.76h-.209c-.129.209-.313.472-.552.791-.238.313-.579.594-1.021.842-.443.244-1.032.366-1.768.366zm.239-1.581c.706 0 1.302-.184 1.79-.552.487-.373.857-.888 1.111-1.544.253-.661.38-1.424.38-2.289 0-.855-.124-1.604-.373-2.245-.248-.646-.616-1.148-1.103-1.506-.488-.363-1.089-.545-1.805-.545-.746 0-1.367.192-1.864.574-.493.378-.863.893-1.112 1.544-.243.646-.365 1.372-.365 2.178 0 .815.124 1.556.373 2.222.253.661.626 1.188 1.118 1.581.498.388 1.114.582 1.85.582zm27.334-9.158h-1.85a3.847 3.847 0 00-1.558-2.416 4.183 4.183 0 00-1.276-.627 5.094 5.094 0 00-1.461-.208 4.65 4.65 0 00-2.513.701c-.746.467-1.34 1.155-1.783 2.065-.437.91-.656 2.026-.656 3.349 0 1.322.219 2.438.656 3.348.443.91 1.037 1.598 1.783 2.066.75.467 1.588.701 2.513.701.507 0 .994-.07 1.461-.209a4.282 4.282 0 001.276-.619 3.913 3.913 0 001.558-2.424h1.85a6.179 6.179 0 01-.761 2.096 5.724 5.724 0 01-1.372 1.573 5.987 5.987 0 01-1.842.977 6.86 6.86 0 01-2.17.336c-1.303 0-2.461-.318-3.475-.955-1.015-.636-1.813-1.541-2.394-2.714-.582-1.174-.873-2.566-.873-4.176 0-1.611.291-3.003.873-4.176.581-1.174 1.379-2.079 2.394-2.715 1.014-.636 2.172-.955 3.475-.955.77 0 1.494.112 2.17.336a5.941 5.941 0 011.842.984c.547.428 1.004.95 1.372 1.566.368.612.621 1.31.761 2.096zm7.613 10.739c-1.034 0-1.942-.246-2.722-.739-.776-.492-1.382-1.18-1.82-2.065-.432-.885-.648-1.919-.648-3.103 0-1.193.216-2.234.648-3.124.438-.89 1.044-1.581 1.82-2.073.78-.493 1.688-.739 2.722-.739s1.939.246 2.714.739c.781.492 1.387 1.183 1.82 2.073.437.89.656 1.931.656 3.124 0 1.184-.219 2.218-.656 3.103-.433.885-1.039 1.573-1.82 2.065-.775.493-1.68.739-2.714.739zm0-1.581c.785 0 1.432-.202 1.939-.604.507-.403.882-.933 1.126-1.589a6.094 6.094 0 00.365-2.133c0-.765-.122-1.479-.365-2.14-.244-.661-.619-1.196-1.126-1.603-.507-.408-1.154-.612-1.939-.612-.786 0-1.432.204-1.939.612-.507.407-.882.942-1.126 1.603a6.135 6.135 0 00-.366 2.14c0 .766.122 1.477.366 2.133.244.656.619 1.186 1.126 1.589.507.402 1.153.604 1.939.604zm9.847-5.549V149h-1.76v-11.455h1.7v1.79h.149a3.278 3.278 0 011.223-1.402c.547-.358 1.253-.537 2.118-.537.776 0 1.454.159 2.036.478.582.313 1.034.79 1.357 1.431.323.637.485 1.442.485 2.417V149h-1.76v-7.159c0-.9-.234-1.601-.701-2.103-.467-.507-1.109-.761-1.924-.761-.562 0-1.064.122-1.506.366a2.613 2.613 0 00-1.037 1.066c-.254.467-.38 1.034-.38 1.7zm15.715-4.564v1.492h-5.936v-1.492h5.936zm-4.206-2.744h1.76v10.918c0 .497.073.87.217 1.118.149.244.338.408.566.493.234.079.48.119.739.119.194 0 .353-.01.477-.03l.298-.06.358 1.581a3.57 3.57 0 01-.499.135 3.73 3.73 0 01-.813.074 3.54 3.54 0 01-1.462-.321 2.899 2.899 0 01-1.178-.976c-.308-.438-.463-.99-.463-1.656v-11.395zm11.743 14.438c-1.103 0-2.055-.244-2.856-.731-.795-.492-1.409-1.178-1.842-2.058-.427-.885-.641-1.914-.641-3.088 0-1.173.214-2.207.641-3.102.433-.9 1.034-1.601 1.805-2.103.775-.507 1.68-.761 2.714-.761.597 0 1.186.1 1.768.299a4.374 4.374 0 011.588.969c.477.443.858 1.029 1.141 1.76.284.731.425 1.631.425 2.7v.745h-8.829v-1.521h7.039c0-.646-.129-1.223-.387-1.73a2.934 2.934 0 00-1.089-1.201c-.467-.293-1.019-.44-1.656-.44-.701 0-1.307.174-1.819.522a3.432 3.432 0 00-1.171 1.343 3.944 3.944 0 00-.41 1.774v1.015c0 .865.149 1.598.447 2.2.304.596.724 1.051 1.261 1.364.536.309 1.16.463 1.871.463.463 0 .88-.065 1.253-.194.378-.134.704-.333.977-.597.274-.268.485-.601.634-.999l1.7.477a3.758 3.758 0 01-.902 1.521 4.407 4.407 0 01-1.566 1.015c-.622.238-1.32.358-2.096.358zm9.39-7.13V149h-1.76v-11.455h1.701v1.79h.149a3.271 3.271 0 011.223-1.402c.547-.358 1.253-.537 2.118-.537.775 0 1.454.159 2.036.478.581.313 1.034.79 1.357 1.431.323.637.485 1.442.485 2.417V149h-1.76v-7.159c0-.9-.234-1.601-.701-2.103-.468-.507-1.109-.761-1.924-.761a3.07 3.07 0 00-1.507.366 2.61 2.61 0 00-1.036 1.066c-.254.467-.381 1.034-.381 1.7zm15.716-4.564v1.492h-5.936v-1.492h5.936zm-4.206-2.744h1.76v10.918c0 .497.072.87.216 1.118.15.244.338.408.567.493.234.079.48.119.738.119.194 0 .353-.01.478-.03l.298-.06.358 1.581c-.119.045-.286.09-.5.135a3.718 3.718 0 01-.813.074c-.497 0-.984-.107-1.461-.321a2.899 2.899 0 01-1.178-.976c-.309-.438-.463-.99-.463-1.656v-11.395zm25.708 3.699h-1.849a3.865 3.865 0 00-1.559-2.416 4.189 4.189 0 00-1.275-.627 5.1 5.1 0 00-1.462-.208c-.924 0-1.762.233-2.513.701-.746.467-1.34 1.155-1.782 2.065-.438.91-.656 2.026-.656 3.349 0 1.322.218 2.438.656 3.348.442.91 1.036 1.598 1.782 2.066a4.664 4.664 0 002.513.701c.507 0 .995-.07 1.462-.209a4.288 4.288 0 001.275-.619c.388-.278.716-.619.985-1.022.273-.407.464-.875.574-1.402h1.849a6.178 6.178 0 01-.76 2.096 5.727 5.727 0 01-1.373 1.573 5.965 5.965 0 01-1.842.977 6.855 6.855 0 01-2.17.336c-1.302 0-2.461-.318-3.475-.955-1.014-.636-1.812-1.541-2.394-2.714-.581-1.174-.872-2.566-.872-4.176 0-1.611.291-3.003.872-4.176.582-1.174 1.38-2.079 2.394-2.715 1.014-.636 2.173-.955 3.475-.955.771 0 1.494.112 2.17.336a5.919 5.919 0 011.842.984 5.64 5.64 0 011.373 1.566c.367.612.621 1.31.76 2.096zm7.614 10.739c-1.035 0-1.942-.246-2.722-.739-.776-.492-1.383-1.18-1.82-2.065-.433-.885-.649-1.919-.649-3.103 0-1.193.216-2.234.649-3.124.437-.89 1.044-1.581 1.82-2.073.78-.493 1.687-.739 2.722-.739 1.034 0 1.938.246 2.714.739.781.492 1.387 1.183 1.82 2.073.437.89.656 1.931.656 3.124 0 1.184-.219 2.218-.656 3.103-.433.885-1.039 1.573-1.82 2.065-.776.493-1.68.739-2.714.739zm0-1.581c.785 0 1.431-.202 1.938-.604.508-.403.883-.933 1.126-1.589a6.071 6.071 0 00.366-2.133c0-.765-.122-1.479-.366-2.14-.243-.661-.618-1.196-1.126-1.603-.507-.408-1.153-.612-1.938-.612-.786 0-1.432.204-1.939.612-.508.407-.883.942-1.126 1.603a6.135 6.135 0 00-.366 2.14c0 .766.122 1.477.366 2.133.243.656.618 1.186 1.126 1.589.507.402 1.153.604 1.939.604zm9.846-13.931V149h-1.76v-15.273h1.76zm5.194 0V149h-1.76v-15.273h1.76zm6.804 15.541c-.726 0-1.385-.136-1.976-.41a3.386 3.386 0 01-1.41-1.2c-.348-.527-.522-1.164-.522-1.909 0-.657.129-1.189.388-1.596a2.74 2.74 0 011.037-.97 5.482 5.482 0 011.431-.522 17.34 17.34 0 011.589-.283c.696-.09 1.26-.157 1.693-.202.437-.049.755-.131.954-.246.204-.114.306-.313.306-.596v-.06c0-.736-.201-1.307-.604-1.715-.398-.408-1.002-.612-1.812-.612-.84 0-1.499.184-1.976.552-.478.368-.813.761-1.007 1.179l-1.671-.597c.299-.696.696-1.238 1.194-1.626a4.467 4.467 0 011.64-.82 6.817 6.817 0 011.76-.239c.368 0 .791.045 1.268.135.482.084.947.261 1.394.529.453.268.828.674 1.126 1.216.299.541.448 1.267.448 2.177V149h-1.76v-1.551h-.09c-.119.248-.318.514-.596.798-.279.283-.649.524-1.111.723-.463.199-1.027.298-1.693.298zm.268-1.58c.696 0 1.283-.137 1.76-.411.483-.273.845-.626 1.089-1.059.249-.432.373-.887.373-1.364v-1.611c-.075.089-.239.171-.492.246-.249.07-.537.132-.865.186-.323.05-.639.095-.947.135-.304.034-.55.064-.739.089-.457.06-.885.157-1.282.291a2.216 2.216 0 00-.955.589c-.239.259-.358.612-.358 1.059 0 .612.226 1.074.679 1.387.457.308 1.036.463 1.737.463zm8.643 1.312v-15.273h1.76v5.638h.149c.129-.199.308-.452.537-.761.234-.313.567-.591.999-.835.438-.248 1.029-.373 1.775-.373.964 0 1.815.241 2.55.724.736.482 1.31 1.166 1.723 2.05.413.885.619 1.929.619 3.133 0 1.213-.206 2.264-.619 3.154-.413.885-.984 1.571-1.715 2.058-.731.483-1.574.724-2.528.724-.736 0-1.325-.122-1.768-.366-.442-.248-.783-.529-1.021-.842a11.222 11.222 0 01-.552-.791h-.209V149h-1.7zm1.73-5.727c0 .865.127 1.628.38 2.289.254.656.624 1.171 1.111 1.544.488.368 1.084.552 1.79.552.736 0 1.35-.194 1.842-.582.497-.393.87-.92 1.119-1.581.253-.666.38-1.407.38-2.222 0-.806-.124-1.532-.373-2.178-.243-.651-.614-1.166-1.111-1.544-.492-.382-1.111-.574-1.857-.574-.716 0-1.317.182-1.805.545-.487.358-.855.86-1.103 1.506-.249.641-.373 1.39-.373 2.245zm15.938 5.966c-1.035 0-1.942-.246-2.722-.739-.776-.492-1.382-1.18-1.82-2.065-.433-.885-.649-1.919-.649-3.103 0-1.193.216-2.234.649-3.124.438-.89 1.044-1.581 1.82-2.073.78-.493 1.687-.739 2.722-.739 1.034 0 1.938.246 2.714.739.781.492 1.387 1.183 1.82 2.073.437.89.656 1.931.656 3.124 0 1.184-.219 2.218-.656 3.103-.433.885-1.039 1.573-1.82 2.065-.776.493-1.68.739-2.714.739zm0-1.581c.785 0 1.431-.202 1.938-.604.508-.403.883-.933 1.127-1.589a6.094 6.094 0 00.365-2.133c0-.765-.122-1.479-.365-2.14-.244-.661-.619-1.196-1.127-1.603-.507-.408-1.153-.612-1.938-.612-.786 0-1.432.204-1.939.612-.507.407-.883.942-1.126 1.603a6.135 6.135 0 00-.366 2.14c0 .766.122 1.477.366 2.133.243.656.619 1.186 1.126 1.589.507.402 1.153.604 1.939.604zm8.086 1.342v-11.455h1.701v1.731h.119c.209-.567.587-1.027 1.134-1.38a3.333 3.333 0 011.849-.53c.129 0 .291.003.485.008s.34.012.44.022v1.79a5.383 5.383 0 00-.41-.067 4.026 4.026 0 00-.664-.052c-.557 0-1.054.117-1.492.35a2.651 2.651 0 00-1.029.955 2.576 2.576 0 00-.373 1.379V149h-1.76zm11.395.268c-.726 0-1.385-.136-1.977-.41a3.39 3.39 0 01-1.409-1.2c-.348-.527-.522-1.164-.522-1.909 0-.657.129-1.189.388-1.596a2.737 2.737 0 011.036-.97c.433-.233.91-.407 1.432-.522a17.34 17.34 0 011.589-.283 71.3 71.3 0 011.692-.202c.438-.049.756-.131.955-.246.204-.114.306-.313.306-.596v-.06c0-.736-.202-1.307-.604-1.715-.398-.408-1.002-.612-1.813-.612-.84 0-1.498.184-1.976.552-.477.368-.813.761-1.006 1.179l-1.671-.597c.298-.696.696-1.238 1.193-1.626a4.463 4.463 0 011.641-.82 6.812 6.812 0 011.76-.239c.368 0 .79.045 1.268.135.482.084.947.261 1.394.529.453.268.828.674 1.126 1.216.298.541.448 1.267.448 2.177V149h-1.76v-1.551h-.09c-.119.248-.318.514-.596.798-.279.283-.649.524-1.112.723-.462.199-1.026.298-1.692.298zm.268-1.58c.696 0 1.283-.137 1.76-.411.482-.273.845-.626 1.089-1.059.248-.432.373-.887.373-1.364v-1.611c-.075.089-.239.171-.492.246-.249.07-.537.132-.866.186-.323.05-.638.095-.947.135-.303.034-.549.064-.738.089-.457.06-.885.157-1.283.291a2.212 2.212 0 00-.954.589c-.239.259-.358.612-.358 1.059 0 .612.226 1.074.679 1.387.457.308 1.036.463 1.737.463zm13.385-10.143v1.492h-5.936v-1.492h5.936zm-4.206-2.744h1.76v10.918c0 .497.073.87.217 1.118.149.244.338.408.566.493.234.079.48.119.739.119.194 0 .353-.01.477-.03l.298-.06.358 1.581a3.57 3.57 0 01-.499.135 3.73 3.73 0 01-.813.074 3.54 3.54 0 01-1.462-.321 2.899 2.899 0 01-1.178-.976c-.308-.438-.463-.99-.463-1.656v-11.395zM405.692 149v-11.455h1.76V149h-1.76zm.895-13.364c-.343 0-.639-.116-.888-.35a1.13 1.13 0 01-.365-.843c0-.328.122-.609.365-.843.249-.233.545-.35.888-.35.343 0 .636.117.88.35.248.234.373.515.373.843 0 .328-.125.609-.373.843-.244.234-.537.35-.88.35zm8.952 13.603c-1.034 0-1.942-.246-2.722-.739-.776-.492-1.382-1.18-1.82-2.065-.432-.885-.649-1.919-.649-3.103 0-1.193.217-2.234.649-3.124.438-.89 1.044-1.581 1.82-2.073.78-.493 1.688-.739 2.722-.739s1.939.246 2.714.739c.781.492 1.387 1.183 1.82 2.073.437.89.656 1.931.656 3.124 0 1.184-.219 2.218-.656 3.103-.433.885-1.039 1.573-1.82 2.065-.775.493-1.68.739-2.714.739zm0-1.581c.785 0 1.431-.202 1.939-.604.507-.403.882-.933 1.126-1.589a6.094 6.094 0 00.365-2.133c0-.765-.122-1.479-.365-2.14-.244-.661-.619-1.196-1.126-1.603-.508-.408-1.154-.612-1.939-.612-.786 0-1.432.204-1.939.612-.507.407-.883.942-1.126 1.603a6.135 6.135 0 00-.366 2.14c0 .766.122 1.477.366 2.133.243.656.619 1.186 1.126 1.589.507.402 1.153.604 1.939.604zm9.846-5.549V149h-1.76v-11.455h1.701v1.79h.149a3.271 3.271 0 011.223-1.402c.547-.358 1.253-.537 2.118-.537.775 0 1.454.159 2.036.478.581.313 1.034.79 1.357 1.431.323.637.485 1.442.485 2.417V149h-1.76v-7.159c0-.9-.234-1.601-.701-2.103-.468-.507-1.109-.761-1.924-.761a3.07 3.07 0 00-1.507.366 2.61 2.61 0 00-1.036 1.066c-.254.467-.381 1.034-.381 1.7z" fill="#fff"/><path d="M94.293 237.773A3 3 0 0197.03 236h296.44a3 3 0 012.737 1.773l8.743 19.5c.35.78.35 1.674 0 2.454l-8.743 19.5A3 3 0 01393.47 281H97.03a3 3 0 01-2.737-1.773l-8.743-19.5a2.998 2.998 0 010-2.454l8.743-19.5z" fill="#000"/><path d="M129.452 255.545a2.342 2.342 0 00-1.089-1.759c-.636-.418-1.417-.627-2.342-.627-.676 0-1.267.109-1.775.328-.502.219-.894.52-1.178.903a2.162 2.162 0 00-.417 1.305c0 .407.097.758.29 1.051.199.288.453.53.761.723.308.189.631.346.97.47.338.12.648.217.932.291l1.551.418c.398.104.84.248 1.327.432.492.184.962.435 1.41.753.452.314.825.716 1.118 1.209.294.492.44 1.096.44 1.812 0 .825-.216 1.571-.649 2.237-.427.666-1.053 1.196-1.879 1.588-.82.393-1.817.589-2.99.589-1.094 0-2.041-.176-2.841-.529-.796-.353-1.422-.845-1.88-1.477-.452-.631-.708-1.364-.768-2.2h1.909c.05.577.244 1.054.582 1.432.343.373.776.652 1.298.836a5.249 5.249 0 001.7.268c.706 0 1.34-.114 1.901-.343.562-.234 1.007-.557 1.335-.969a2.3 2.3 0 00.493-1.462c0-.507-.142-.92-.426-1.238-.283-.318-.656-.577-1.118-.776a11.9 11.9 0 00-1.499-.522l-1.879-.537c-1.194-.343-2.138-.832-2.834-1.469-.696-.636-1.044-1.469-1.044-2.498 0-.855.231-1.601.693-2.237.468-.641 1.094-1.139 1.88-1.492.79-.358 1.673-.537 2.647-.537.984 0 1.859.177 2.625.53.766.348 1.372.825 1.82 1.432a3.56 3.56 0 01.715 2.065h-1.789zm9.813 11.694c-1.104 0-2.056-.244-2.856-.731-.796-.492-1.41-1.178-1.842-2.058-.428-.885-.642-1.914-.642-3.088 0-1.173.214-2.207.642-3.102.432-.9 1.034-1.601 1.804-2.103.776-.507 1.681-.761 2.715-.761.597 0 1.186.1 1.767.299a4.37 4.37 0 011.589.969c.477.443.857 1.029 1.141 1.76.283.731.425 1.631.425 2.7v.745h-8.83v-1.521h7.04c0-.646-.129-1.223-.388-1.73a2.924 2.924 0 00-1.088-1.201c-.468-.293-1.02-.44-1.656-.44-.701 0-1.308.174-1.82.522a3.43 3.43 0 00-1.17 1.343 3.932 3.932 0 00-.411 1.774v1.015c0 .865.15 1.598.448 2.2.303.596.723 1.051 1.26 1.364.537.309 1.161.463 1.872.463.462 0 .88-.065 1.253-.194.378-.134.703-.333.977-.597a2.72 2.72 0 00.634-.999l1.7.477a3.77 3.77 0 01-.902 1.521 4.402 4.402 0 01-1.567 1.015c-.621.238-1.319.358-2.095.358zm9.39-7.13V267h-1.76v-11.455h1.7v1.79h.149a3.284 3.284 0 011.223-1.402c.547-.358 1.253-.537 2.118-.537.776 0 1.455.159 2.036.478.582.313 1.034.79 1.358 1.431.323.637.484 1.442.484 2.417V267h-1.76v-7.159c0-.9-.233-1.601-.701-2.103-.467-.507-1.108-.761-1.924-.761-.561 0-1.064.122-1.506.366a2.613 2.613 0 00-1.037 1.066c-.253.467-.38 1.034-.38 1.7zm18.848-1.998l-1.581.447a2.964 2.964 0 00-.44-.768 2.143 2.143 0 00-.776-.626c-.328-.164-.748-.246-1.26-.246-.701 0-1.285.161-1.752.484-.463.319-.694.724-.694 1.216 0 .437.159.783.477 1.036.318.254.816.465 1.492.634l1.7.418c1.024.249 1.787.629 2.289 1.141.503.507.754 1.161.754 1.961 0 .656-.189 1.243-.567 1.76-.373.517-.895.925-1.566 1.223-.671.298-1.452.448-2.342.448-1.168 0-2.135-.254-2.901-.761-.765-.507-1.25-1.248-1.454-2.222l1.671-.418c.159.617.459 1.079.902 1.387.447.308 1.032.463 1.752.463.821 0 1.472-.175 1.954-.523.487-.353.731-.775.731-1.267 0-.398-.139-.731-.418-1-.278-.273-.706-.477-1.282-.611l-1.909-.448c-1.049-.248-1.82-.633-2.312-1.155-.487-.527-.731-1.186-.731-1.977 0-.646.182-1.218.544-1.715.368-.497.868-.887 1.499-1.171.637-.283 1.358-.425 2.163-.425 1.134 0 2.023.249 2.67.746.651.497 1.113 1.153 1.387 1.969zm3.068 8.889v-11.455h1.76V267h-1.76zm.895-13.364c-.343 0-.639-.116-.888-.35a1.13 1.13 0 01-.365-.843c0-.328.122-.609.365-.843.249-.233.545-.35.888-.35.343 0 .636.117.88.35.248.234.373.515.373.843 0 .328-.125.609-.373.843-.244.234-.537.35-.88.35zm9.28 1.909v1.492h-5.936v-1.492h5.936zm-4.206-2.744h1.76v10.918c0 .497.072.87.216 1.118.149.244.338.408.567.493.234.079.48.119.738.119.194 0 .353-.01.477-.03l.299-.06.358 1.581a3.59 3.59 0 01-.5.135 3.73 3.73 0 01-.813.074c-.497 0-.984-.107-1.461-.321a2.895 2.895 0 01-1.179-.976c-.308-.438-.462-.99-.462-1.656v-11.395zM183.603 267v-11.455h1.76V267h-1.76zm.895-13.364c-.343 0-.639-.116-.887-.35a1.127 1.127 0 01-.366-.843c0-.328.122-.609.366-.843.248-.233.544-.35.887-.35.343 0 .636.117.88.35.249.234.373.515.373.843 0 .328-.124.609-.373.843-.244.234-.537.35-.88.35zm13.665 1.909L193.927 267h-1.789l-4.236-11.455h1.909l3.162 9.128h.119l3.162-9.128h1.909zm6.925 11.694c-1.103 0-2.055-.244-2.856-.731-.795-.492-1.409-1.178-1.842-2.058-.427-.885-.641-1.914-.641-3.088 0-1.173.214-2.207.641-3.102.433-.9 1.034-1.601 1.805-2.103.776-.507 1.68-.761 2.714-.761.597 0 1.186.1 1.768.299a4.366 4.366 0 011.588.969c.478.443.858 1.029 1.141 1.76.284.731.425 1.631.425 2.7v.745h-8.829v-1.521h7.04c0-.646-.13-1.223-.388-1.73a2.934 2.934 0 00-1.089-1.201c-.467-.293-1.019-.44-1.656-.44-.701 0-1.307.174-1.819.522a3.44 3.44 0 00-1.171 1.343 3.944 3.944 0 00-.41 1.774v1.015c0 .865.149 1.598.447 2.2.304.596.724 1.051 1.261 1.364.537.309 1.161.463 1.871.463.463 0 .88-.065 1.253-.194.378-.134.704-.333.977-.597.274-.268.485-.601.634-.999l1.7.477a3.758 3.758 0 01-.902 1.521 4.407 4.407 0 01-1.566 1.015c-.621.238-1.32.358-2.096.358zm18.699-.239h-4.714v-15.273h4.922c1.482 0 2.75.306 3.804.918 1.054.606 1.861 1.479 2.423 2.617.562 1.134.843 2.491.843 4.072 0 1.591-.283 2.96-.85 4.109a6.064 6.064 0 01-2.476 2.64c-1.084.611-2.401.917-3.952.917zm-2.864-1.641h2.744c1.263 0 2.31-.243 3.14-.73a4.511 4.511 0 001.857-2.081c.407-.9.611-1.971.611-3.214 0-1.233-.201-2.295-.604-3.184-.403-.895-1.004-1.581-1.805-2.059-.8-.482-1.797-.723-2.99-.723h-2.953v11.991zm16.586 1.909c-.726 0-1.384-.136-1.976-.41a3.383 3.383 0 01-1.409-1.2c-.348-.527-.522-1.164-.522-1.909 0-.657.129-1.189.387-1.596a2.74 2.74 0 011.037-.97c.433-.233.91-.407 1.432-.522a17.32 17.32 0 011.588-.283c.696-.09 1.261-.157 1.693-.202.438-.049.756-.131.955-.246.203-.114.305-.313.305-.596v-.06c0-.736-.201-1.307-.604-1.715-.397-.408-1.001-.612-1.812-.612-.84 0-1.499.184-1.976.552-.477.368-.813.761-1.007 1.179l-1.67-.597c.298-.696.696-1.238 1.193-1.626a4.463 4.463 0 011.641-.82 6.812 6.812 0 011.76-.239c.367 0 .79.045 1.267.135.483.084.947.261 1.395.529.452.268.828.674 1.126 1.216.298.541.447 1.267.447 2.177V267h-1.76v-1.551h-.089c-.119.248-.318.514-.597.798-.278.283-.649.524-1.111.723-.462.199-1.027.298-1.693.298zm.269-1.58c.696 0 1.282-.137 1.76-.411.482-.273.845-.626 1.088-1.059.249-.432.373-.887.373-1.364v-1.611c-.074.089-.238.171-.492.246-.248.07-.537.132-.865.186-.323.05-.639.095-.947.135-.303.034-.549.064-.738.089-.458.06-.885.157-1.283.291a2.206 2.206 0 00-.954.589c-.239.259-.358.612-.358 1.059 0 .612.226 1.074.678 1.387.458.308 1.037.463 1.738.463zm13.385-10.143v1.492h-5.936v-1.492h5.936zm-4.206-2.744h1.76v10.918c0 .497.072.87.216 1.118.149.244.338.408.567.493.234.079.48.119.738.119.194 0 .353-.01.478-.03l.298-.06.358 1.581c-.119.045-.286.09-.5.135a3.724 3.724 0 01-.813.074c-.497 0-.984-.107-1.461-.321a2.902 2.902 0 01-1.179-.976c-.308-.438-.462-.99-.462-1.656v-11.395zm10.434 14.467c-.726 0-1.384-.136-1.976-.41a3.383 3.383 0 01-1.409-1.2c-.348-.527-.522-1.164-.522-1.909 0-.657.129-1.189.387-1.596a2.74 2.74 0 011.037-.97 5.49 5.49 0 011.432-.522 17.32 17.32 0 011.588-.283c.696-.09 1.26-.157 1.693-.202.437-.049.756-.131.955-.246.203-.114.305-.313.305-.596v-.06c0-.736-.201-1.307-.604-1.715-.398-.408-1.002-.612-1.812-.612-.84 0-1.499.184-1.976.552-.477.368-.813.761-1.007 1.179l-1.67-.597c.298-.696.696-1.238 1.193-1.626a4.467 4.467 0 011.64-.82 6.823 6.823 0 011.76-.239c.368 0 .791.045 1.268.135.482.084.947.261 1.395.529.452.268.827.674 1.126 1.216.298.541.447 1.267.447 2.177V267h-1.76v-1.551h-.089c-.12.248-.318.514-.597.798-.278.283-.649.524-1.111.723-.462.199-1.027.298-1.693.298zm.269-1.58c.696 0 1.282-.137 1.76-.411.482-.273.845-.626 1.088-1.059.249-.432.373-.887.373-1.364v-1.611c-.074.089-.238.171-.492.246-.248.07-.537.132-.865.186-.323.05-.639.095-.947.135-.303.034-.549.064-.738.089-.458.06-.885.157-1.283.291a2.216 2.216 0 00-.955.589c-.238.259-.358.612-.358 1.059 0 .612.227 1.074.679 1.387.457.308 1.037.463 1.738.463zM277.131 267h-4.713v-15.273h4.922c1.482 0 2.75.306 3.804.918 1.053.606 1.861 1.479 2.423 2.617.562 1.134.843 2.491.843 4.072 0 1.591-.284 2.96-.85 4.109a6.064 6.064 0 01-2.476 2.64c-1.084.611-2.401.917-3.953.917zm-2.863-1.641h2.744c1.263 0 2.309-.243 3.14-.73a4.511 4.511 0 001.857-2.081c.407-.9.611-1.971.611-3.214 0-1.233-.201-2.295-.604-3.184-.403-.895-1.004-1.581-1.805-2.059-.8-.482-1.797-.723-2.99-.723h-2.953v11.991zM287.483 267v-11.455h1.76V267h-1.76zm.895-13.364a1.25 1.25 0 01-.887-.35 1.126 1.126 0 01-.365-.843c0-.328.121-.609.365-.843.249-.233.544-.35.887-.35.343 0 .637.117.88.35.249.234.373.515.373.843 0 .328-.124.609-.373.843-.243.234-.537.35-.88.35zm12.413 4.475l-1.581.447a2.993 2.993 0 00-.44-.768 2.143 2.143 0 00-.776-.626c-.328-.164-.748-.246-1.26-.246-.701 0-1.285.161-1.753.484-.462.319-.693.724-.693 1.216 0 .437.159.783.477 1.036.318.254.815.465 1.491.634l1.701.418c1.024.249 1.787.629 2.289 1.141.502.507.753 1.161.753 1.961 0 .656-.189 1.243-.566 1.76-.373.517-.895.925-1.566 1.223-.672.298-1.452.448-2.342.448-1.168 0-2.135-.254-2.901-.761s-1.25-1.248-1.454-2.222l1.67-.418c.159.617.46 1.079.903 1.387.447.308 1.031.463 1.752.463.82 0 1.472-.175 1.954-.523.487-.353.731-.775.731-1.267 0-.398-.139-.731-.418-1-.278-.273-.706-.477-1.283-.611l-1.909-.448c-1.049-.248-1.819-.633-2.311-1.155-.488-.527-.731-1.186-.731-1.977 0-.646.181-1.218.544-1.715.368-.497.868-.887 1.499-1.171.636-.283 1.357-.425 2.163-.425 1.133 0 2.023.249 2.669.746.652.497 1.114 1.153 1.388 1.969zm7.721 9.128c-1.074 0-1.999-.254-2.774-.761-.776-.507-1.372-1.206-1.79-2.096-.418-.889-.626-1.906-.626-3.05 0-1.163.213-2.19.641-3.08.432-.894 1.034-1.593 1.805-2.095.775-.507 1.68-.761 2.714-.761.806 0 1.531.149 2.178.448a4.17 4.17 0 011.588 1.253c.413.537.669 1.163.768 1.879h-1.76c-.134-.522-.432-.985-.895-1.387-.457-.408-1.073-.612-1.849-.612-.686 0-1.288.179-1.805.537-.512.353-.912.853-1.2 1.499-.284.641-.425 1.395-.425 2.26 0 .885.139 1.655.417 2.312.284.656.681 1.165 1.193 1.528.517.363 1.124.545 1.82.545.457 0 .872-.08 1.245-.239.373-.159.689-.388.947-.686.259-.298.443-.656.552-1.074h1.76a4.07 4.07 0 01-.738 1.827 4.122 4.122 0 01-1.544 1.283c-.636.313-1.377.47-2.222.47zm11.94 0c-1.034 0-1.941-.246-2.721-.739-.776-.492-1.383-1.18-1.82-2.065-.433-.885-.649-1.919-.649-3.103 0-1.193.216-2.234.649-3.124.437-.89 1.044-1.581 1.82-2.073.78-.493 1.687-.739 2.721-.739 1.035 0 1.939.246 2.715.739.78.492 1.387 1.183 1.82 2.073.437.89.656 1.931.656 3.124 0 1.184-.219 2.218-.656 3.103-.433.885-1.04 1.573-1.82 2.065-.776.493-1.68.739-2.715.739zm0-1.581c.786 0 1.432-.202 1.939-.604.507-.403.883-.933 1.126-1.589a6.071 6.071 0 00.366-2.133c0-.765-.122-1.479-.366-2.14-.243-.661-.619-1.196-1.126-1.603-.507-.408-1.153-.612-1.939-.612-.785 0-1.431.204-1.938.612-.508.407-.883.942-1.127 1.603a6.157 6.157 0 00-.365 2.14c0 .766.122 1.477.365 2.133.244.656.619 1.186 1.127 1.589.507.402 1.153.604 1.938.604zm17.044-10.113L333.26 267h-1.79l-4.236-11.455h1.909l3.162 9.128h.12l3.162-9.128h1.909zm6.925 11.694c-1.104 0-2.056-.244-2.856-.731-.796-.492-1.41-1.178-1.842-2.058-.428-.885-.641-1.914-.641-3.088 0-1.173.213-2.207.641-3.102.432-.9 1.034-1.601 1.805-2.103.775-.507 1.68-.761 2.714-.761.597 0 1.186.1 1.767.299a4.37 4.37 0 011.589.969c.477.443.857 1.029 1.141 1.76.283.731.425 1.631.425 2.7v.745h-8.83v-1.521h7.04c0-.646-.129-1.223-.388-1.73a2.924 2.924 0 00-1.088-1.201c-.468-.293-1.02-.44-1.656-.44-.701 0-1.307.174-1.82.522a3.43 3.43 0 00-1.17 1.343 3.932 3.932 0 00-.411 1.774v1.015c0 .865.15 1.598.448 2.2.303.596.723 1.051 1.26 1.364.537.309 1.161.463 1.872.463.462 0 .88-.065 1.253-.194.378-.134.703-.333.977-.597.273-.268.485-.601.634-.999l1.7.477a3.77 3.77 0 01-.902 1.521 4.407 4.407 0 01-1.566 1.015c-.622.238-1.32.358-2.096.358zm7.63-.239v-11.455h1.7v1.731h.12c.209-.567.586-1.027 1.133-1.38a3.34 3.34 0 011.85-.53c.129 0 .29.003.484.008s.341.012.44.022v1.79a5.202 5.202 0 00-.41-.067 4.014 4.014 0 00-.663-.052c-.557 0-1.054.117-1.492.35a2.644 2.644 0 00-1.029.955 2.568 2.568 0 00-.373 1.379V267h-1.76zm9.506 4.295a3.83 3.83 0 01-.798-.074 2.168 2.168 0 01-.485-.134l.448-1.551c.427.109.805.149 1.133.119.328-.03.619-.177.873-.44.258-.259.494-.679.708-1.26l.328-.895-4.236-11.515h1.909l3.162 9.128h.12l3.162-9.128h1.909l-4.863 13.125c-.218.592-.489 1.082-.812 1.47a3.065 3.065 0 01-1.126.872c-.423.189-.9.283-1.432.283z" fill="#fff"/></svg>