<svg width="465" height="281" viewBox="0 0 465 281" fill="none" xmlns="http://www.w3.org/2000/svg">
<path d="M9.29295 1.77268C9.77653 0.694092 10.8484 0 12.0304 0H225.47C226.652 0 227.723 0.694092 228.207 1.77268L236.95 21.2727C237.3 22.0535 237.3 22.9465 236.95 23.7273L228.207 43.2273C227.723 44.3059 226.652 45 225.47 45H12.0304C10.8484 45 9.77653 44.3059 9.29295 43.2273L0.550261 23.7273C0.200207 22.9465 0.200207 22.0535 0.550261 21.2727L9.29295 1.77268Z" fill="black"/>
<path d="M37.5625 29H32.8494V13.7273H37.7713C39.2528 13.7273 40.5206 14.033 41.5746 14.6445C42.6286 15.2511 43.4364 16.1236 43.9982 17.2621C44.56 18.3956 44.8409 19.7528 44.8409 21.3338C44.8409 22.9247 44.5575 24.2944 43.9908 25.4428C43.424 26.5863 42.5987 27.4663 41.5149 28.0827C40.4311 28.6942 39.1136 29 37.5625 29ZM34.6989 27.3594H37.4432C38.706 27.3594 39.7525 27.1158 40.5827 26.6286C41.413 26.1413 42.032 25.4478 42.4396 24.5479C42.8473 23.6481 43.0511 22.5767 43.0511 21.3338C43.0511 20.1009 42.8498 19.0394 42.4471 18.1495C42.0444 17.2546 41.4428 16.5685 40.6424 16.0913C39.842 15.609 38.8452 15.3679 37.652 15.3679H34.6989V27.3594ZM51.2853 29.2685C50.5594 29.2685 49.9007 29.1317 49.3091 28.8583C48.7175 28.5799 48.2476 28.1797 47.8996 27.6577C47.5516 27.1307 47.3776 26.4943 47.3776 25.7486C47.3776 25.0923 47.5069 24.5604 47.7654 24.1527C48.0239 23.7401 48.3694 23.4169 48.802 23.1832C49.2345 22.9496 49.7118 22.7756 50.2338 22.6612C50.7608 22.5419 51.2903 22.4474 51.8222 22.3778C52.5182 22.2884 53.0825 22.2212 53.515 22.1765C53.9525 22.1268 54.2707 22.0447 54.4696 21.9304C54.6734 21.8161 54.7753 21.6172 54.7753 21.3338V21.2741C54.7753 20.5384 54.574 19.9666 54.1713 19.5589C53.7736 19.1513 53.1695 18.9474 52.3591 18.9474C51.5189 18.9474 50.8602 19.1314 50.3829 19.4993C49.9057 19.8672 49.5701 20.2599 49.3762 20.6776L47.7057 20.081C48.004 19.3849 48.4018 18.843 48.8989 18.4553C49.4011 18.0625 49.9479 17.7891 50.5395 17.6349C51.1361 17.4759 51.7228 17.3963 52.2995 17.3963C52.6674 17.3963 53.09 17.4411 53.5672 17.5305C54.0495 17.6151 54.5143 17.7915 54.9618 18.06C55.4142 18.3285 55.7895 18.7337 56.0878 19.2756C56.3861 19.8175 56.5353 20.5433 56.5353 21.4531V29H54.7753V27.4489H54.6859C54.5665 27.6974 54.3677 27.9634 54.0893 28.2468C53.8109 28.5302 53.4405 28.7713 52.9781 28.9702C52.5158 29.169 51.9515 29.2685 51.2853 29.2685ZM51.5538 27.6875C52.2498 27.6875 52.8364 27.5508 53.3137 27.2773C53.7959 27.0039 54.1589 26.6509 54.4025 26.2184C54.6511 25.7859 54.7753 25.331 54.7753 24.8537V23.2429C54.7008 23.3324 54.5367 23.4144 54.2832 23.489C54.0346 23.5586 53.7462 23.6207 53.4181 23.6754C53.0949 23.7251 52.7792 23.7699 52.471 23.8097C52.1677 23.8445 51.9216 23.8743 51.7327 23.8991C51.2753 23.9588 50.8478 24.0558 50.4501 24.19C50.0573 24.3192 49.7391 24.5156 49.4955 24.7791C49.2569 25.0376 49.1376 25.3906 49.1376 25.8381C49.1376 26.4496 49.3638 26.9119 49.8162 27.2251C50.2736 27.5334 50.8528 27.6875 51.5538 27.6875ZM64.9391 17.5455V19.0369H59.003V17.5455H64.9391ZM60.7331 14.8011H62.4931V25.7188C62.4931 26.2159 62.5652 26.5888 62.7093 26.8374C62.8585 27.081 63.0474 27.245 63.2761 27.3295C63.5098 27.4091 63.7558 27.4489 64.0144 27.4489C64.2083 27.4489 64.3674 27.4389 64.4916 27.419C64.6159 27.3942 64.7154 27.3743 64.7899 27.3594L65.1479 28.9403C65.0286 28.9851 64.862 29.0298 64.6482 29.0746C64.4345 29.1243 64.1635 29.1491 63.8354 29.1491C63.3382 29.1491 62.851 29.0423 62.3737 28.8285C61.9014 28.6147 61.5087 28.2891 61.1955 27.8516C60.8872 27.4141 60.7331 26.8622 60.7331 26.196V14.8011ZM71.1672 29.2685C70.4413 29.2685 69.7826 29.1317 69.191 28.8583C68.5994 28.5799 68.1296 28.1797 67.7815 27.6577C67.4335 27.1307 67.2595 26.4943 67.2595 25.7486C67.2595 25.0923 67.3888 24.5604 67.6473 24.1527C67.9058 23.7401 68.2514 23.4169 68.6839 23.1832C69.1164 22.9496 69.5937 22.7756 70.1157 22.6612C70.6427 22.5419 71.1722 22.4474 71.7041 22.3778C72.4002 22.2884 72.9644 22.2212 73.397 22.1765C73.8345 22.1268 74.1526 22.0447 74.3515 21.9304C74.5553 21.8161 74.6573 21.6172 74.6573 21.3338V21.2741C74.6573 20.5384 74.4559 19.9666 74.0532 19.5589C73.6555 19.1513 73.0514 18.9474 72.2411 18.9474C71.4009 18.9474 70.7421 19.1314 70.2649 19.4993C69.7876 19.8672 69.452 20.2599 69.2581 20.6776L67.5877 20.081C67.8859 19.3849 68.2837 18.843 68.7808 18.4553C69.283 18.0625 69.8298 17.7891 70.4215 17.6349C71.0181 17.4759 71.6047 17.3963 72.1814 17.3963C72.5493 17.3963 72.9719 17.4411 73.4492 17.5305C73.9314 17.6151 74.3962 17.7915 74.8437 18.06C75.2961 18.3285 75.6715 18.7337 75.9698 19.2756C76.2681 19.8175 76.4172 20.5433 76.4172 21.4531V29H74.6573V27.4489H74.5678C74.4484 27.6974 74.2496 27.9634 73.9712 28.2468C73.6928 28.5302 73.3224 28.7713 72.86 28.9702C72.3977 29.169 71.8334 29.2685 71.1672 29.2685ZM71.4357 27.6875C72.1317 27.6875 72.7183 27.5508 73.1956 27.2773C73.6779 27.0039 74.0408 26.6509 74.2844 26.2184C74.533 25.7859 74.6573 25.331 74.6573 24.8537V23.2429C74.5827 23.3324 74.4186 23.4144 74.1651 23.489C73.9165 23.5586 73.6281 23.6207 73.3 23.6754C72.9769 23.7251 72.6612 23.7699 72.3529 23.8097C72.0497 23.8445 71.8036 23.8743 71.6146 23.8991C71.1573 23.9588 70.7297 24.0558 70.332 24.19C69.9392 24.3192 69.621 24.5156 69.3774 24.7791C69.1388 25.0376 69.0195 25.3906 69.0195 25.8381C69.0195 26.4496 69.2457 26.9119 69.6981 27.2251C70.1555 27.5334 70.7347 27.6875 71.4357 27.6875ZM96.6347 18.5C96.4706 17.9979 96.2544 17.5479 95.9859 17.1502C95.7224 16.7475 95.4067 16.4045 95.0388 16.1211C94.6759 15.8377 94.2632 15.6214 93.8009 15.4723C93.3385 15.3232 92.8314 15.2486 92.2796 15.2486C91.3748 15.2486 90.552 15.4822 89.8112 15.9496C89.0704 16.4169 88.4813 17.1055 88.0438 18.0153C87.6063 18.9251 87.3875 20.0412 87.3875 21.3636C87.3875 22.6861 87.6088 23.8022 88.0512 24.712C88.4937 25.6218 89.0928 26.3104 89.8485 26.7777C90.6042 27.245 91.4543 27.4787 92.3989 27.4787C93.2739 27.4787 94.0445 27.2923 94.7107 26.9194C95.3819 26.5415 95.9039 26.0096 96.2767 25.3235C96.6546 24.6325 96.8435 23.8196 96.8435 22.8849L97.4103 23.0043H92.8165V21.3636H98.6333V23.0043C98.6333 24.2621 98.3648 25.3558 97.8279 26.2855C97.2959 27.2152 96.5601 27.9361 95.6205 28.4482C94.6858 28.9553 93.612 29.2088 92.3989 29.2088C91.0466 29.2088 89.8584 28.8906 88.8343 28.2543C87.8151 27.6179 87.0196 26.7131 86.4479 25.5398C85.8811 24.3665 85.5978 22.9744 85.5978 21.3636C85.5978 20.1555 85.7593 19.0692 86.0825 18.1048C86.4106 17.1353 86.873 16.31 87.4696 15.6289C88.0662 14.9478 88.7721 14.4258 89.5875 14.0629C90.4028 13.6999 91.3002 13.5185 92.2796 13.5185C93.085 13.5185 93.8357 13.6403 94.5317 13.8839C95.2327 14.1225 95.8566 14.4631 96.4035 14.9055C96.9554 15.343 97.4152 15.8675 97.7831 16.479C98.151 17.0856 98.4046 17.7592 98.5438 18.5H96.6347ZM106.426 29.2386C105.391 29.2386 104.484 28.9925 103.704 28.5004C102.928 28.0082 102.322 27.3196 101.884 26.4347C101.451 25.5497 101.235 24.5156 101.235 23.3324C101.235 22.1392 101.451 21.0977 101.884 20.2077C102.322 19.3178 102.928 18.6268 103.704 18.1346C104.484 17.6424 105.391 17.3963 106.426 17.3963C107.46 17.3963 108.364 17.6424 109.14 18.1346C109.921 18.6268 110.527 19.3178 110.96 20.2077C111.397 21.0977 111.616 22.1392 111.616 23.3324C111.616 24.5156 111.397 25.5497 110.96 26.4347C110.527 27.3196 109.921 28.0082 109.14 28.5004C108.364 28.9925 107.46 29.2386 106.426 29.2386ZM106.426 27.6577C107.211 27.6577 107.857 27.4563 108.364 27.0536C108.872 26.6509 109.247 26.1214 109.491 25.4652C109.734 24.8089 109.856 24.098 109.856 23.3324C109.856 22.5668 109.734 21.8533 109.491 21.1921C109.247 20.5309 108.872 19.9964 108.364 19.5888C107.857 19.1811 107.211 18.9773 106.426 18.9773C105.64 18.9773 104.994 19.1811 104.487 19.5888C103.98 19.9964 103.604 20.5309 103.361 21.1921C103.117 21.8533 102.995 22.5668 102.995 23.3324C102.995 24.098 103.117 24.8089 103.361 25.4652C103.604 26.1214 103.98 26.6509 104.487 27.0536C104.994 27.4563 105.64 27.6577 106.426 27.6577ZM123.469 17.5455L119.233 29H117.443L113.207 17.5455H115.116L118.278 26.6733H118.398L121.56 17.5455H123.469ZM130.394 29.2386C129.29 29.2386 128.338 28.995 127.538 28.5078C126.743 28.0156 126.129 27.3295 125.696 26.4496C125.268 25.5646 125.055 24.5355 125.055 23.3622C125.055 22.1889 125.268 21.1548 125.696 20.2599C126.129 19.3601 126.73 18.6591 127.501 18.157C128.276 17.6499 129.181 17.3963 130.215 17.3963C130.812 17.3963 131.401 17.4957 131.983 17.6946C132.564 17.8935 133.094 18.2166 133.571 18.6641C134.048 19.1065 134.429 19.6932 134.712 20.424C134.995 21.1548 135.137 22.0547 135.137 23.1236V23.8693H126.307V22.348H133.347C133.347 21.7017 133.218 21.125 132.959 20.6179C132.706 20.1108 132.343 19.7106 131.871 19.4173C131.403 19.1239 130.852 18.9773 130.215 18.9773C129.514 18.9773 128.908 19.1513 128.396 19.4993C127.888 19.8423 127.498 20.2898 127.225 20.8416C126.951 21.3935 126.815 21.9851 126.815 22.6165V23.6307C126.815 24.4957 126.964 25.229 127.262 25.8306C127.565 26.4272 127.985 26.8821 128.522 27.1953C129.059 27.5036 129.683 27.6577 130.394 27.6577C130.856 27.6577 131.274 27.593 131.647 27.4638C132.025 27.3295 132.35 27.1307 132.624 26.8672C132.897 26.5987 133.109 26.2656 133.258 25.8679L134.958 26.3452C134.779 26.9219 134.478 27.429 134.056 27.8665C133.633 28.299 133.111 28.6371 132.49 28.8807C131.868 29.1193 131.17 29.2386 130.394 29.2386ZM138.024 29V17.5455H139.725V19.2756H139.844C140.053 18.7088 140.43 18.2489 140.977 17.896C141.524 17.543 142.141 17.3665 142.827 17.3665C142.956 17.3665 143.118 17.369 143.312 17.3739C143.505 17.3789 143.652 17.3864 143.752 17.3963V19.1861C143.692 19.1712 143.555 19.1488 143.341 19.119C143.133 19.0842 142.911 19.0668 142.678 19.0668C142.121 19.0668 141.624 19.1836 141.186 19.4173C140.754 19.646 140.411 19.9641 140.157 20.3718C139.908 20.7745 139.784 21.2344 139.784 21.7514V29H138.024ZM147.808 22.1094V29H146.048V17.5455H147.748V19.3352H147.897C148.166 18.7536 148.573 18.2862 149.12 17.9332C149.667 17.5753 150.373 17.3963 151.238 17.3963C152.014 17.3963 152.692 17.5554 153.274 17.8736C153.856 18.1868 154.308 18.6641 154.631 19.3054C154.954 19.9418 155.116 20.7472 155.116 21.7216V29H153.356V21.8409C153.356 20.9411 153.122 20.2401 152.655 19.7379C152.188 19.2308 151.546 18.9773 150.731 18.9773C150.169 18.9773 149.667 19.0991 149.225 19.3427C148.787 19.5863 148.442 19.9418 148.188 20.4091C147.934 20.8764 147.808 21.4432 147.808 22.1094ZM161.913 29.2685C161.187 29.2685 160.528 29.1317 159.936 28.8583C159.345 28.5799 158.875 28.1797 158.527 27.6577C158.179 27.1307 158.005 26.4943 158.005 25.7486C158.005 25.0923 158.134 24.5604 158.393 24.1527C158.651 23.7401 158.997 23.4169 159.429 23.1832C159.862 22.9496 160.339 22.7756 160.861 22.6612C161.388 22.5419 161.918 22.4474 162.45 22.3778C163.146 22.2884 163.71 22.2212 164.142 22.1765C164.58 22.1268 164.898 22.0447 165.097 21.9304C165.301 21.8161 165.403 21.6172 165.403 21.3338V21.2741C165.403 20.5384 165.201 19.9666 164.799 19.5589C164.401 19.1513 163.797 18.9474 162.986 18.9474C162.146 18.9474 161.488 19.1314 161.01 19.4993C160.533 19.8672 160.197 20.2599 160.004 20.6776L158.333 20.081C158.631 19.3849 159.029 18.843 159.526 18.4553C160.028 18.0625 160.575 17.7891 161.167 17.6349C161.763 17.4759 162.35 17.3963 162.927 17.3963C163.295 17.3963 163.717 17.4411 164.195 17.5305C164.677 17.6151 165.142 17.7915 165.589 18.06C166.042 18.3285 166.417 18.7337 166.715 19.2756C167.013 19.8175 167.163 20.5433 167.163 21.4531V29H165.403V27.4489H165.313C165.194 27.6974 164.995 27.9634 164.717 28.2468C164.438 28.5302 164.068 28.7713 163.605 28.9702C163.143 29.169 162.579 29.2685 161.913 29.2685ZM162.181 27.6875C162.877 27.6875 163.464 27.5508 163.941 27.2773C164.423 27.0039 164.786 26.6509 165.03 26.2184C165.278 25.7859 165.403 25.331 165.403 24.8537V23.2429C165.328 23.3324 165.164 23.4144 164.91 23.489C164.662 23.5586 164.374 23.6207 164.045 23.6754C163.722 23.7251 163.407 23.7699 163.098 23.8097C162.795 23.8445 162.549 23.8743 162.36 23.8991C161.903 23.9588 161.475 24.0558 161.077 24.19C160.685 24.3192 160.366 24.5156 160.123 24.7791C159.884 25.0376 159.765 25.3906 159.765 25.8381C159.765 26.4496 159.991 26.9119 160.444 27.2251C160.901 27.5334 161.48 27.6875 162.181 27.6875ZM172.345 22.1094V29H170.585V17.5455H172.285V19.3352H172.434C172.703 18.7536 173.11 18.2862 173.657 17.9332C174.204 17.5753 174.91 17.3963 175.775 17.3963C176.551 17.3963 177.229 17.5554 177.811 17.8736C178.393 18.1868 178.845 18.6641 179.168 19.3054C179.492 19.9418 179.653 20.7472 179.653 21.7216V29H177.893V21.8409C177.893 20.9411 177.659 20.2401 177.192 19.7379C176.725 19.2308 176.083 18.9773 175.268 18.9773C174.706 18.9773 174.204 19.0991 173.762 19.3427C173.324 19.5863 172.979 19.9418 172.725 20.4091C172.472 20.8764 172.345 21.4432 172.345 22.1094ZM187.732 29.2386C186.659 29.2386 185.734 28.9851 184.958 28.478C184.183 27.9709 183.586 27.2724 183.169 26.3825C182.751 25.4925 182.542 24.4759 182.542 23.3324C182.542 22.169 182.756 21.1424 183.183 20.2525C183.616 19.3576 184.218 18.6591 184.988 18.157C185.764 17.6499 186.669 17.3963 187.703 17.3963C188.508 17.3963 189.234 17.5455 189.88 17.8438C190.527 18.142 191.056 18.5597 191.469 19.0966C191.881 19.6335 192.137 20.2599 192.237 20.9759H190.477C190.343 20.4538 190.044 19.9915 189.582 19.5888C189.125 19.1811 188.508 18.9773 187.732 18.9773C187.046 18.9773 186.445 19.1562 185.928 19.5142C185.416 19.8672 185.016 20.3668 184.727 21.0131C184.444 21.6545 184.302 22.4077 184.302 23.2727C184.302 24.1577 184.441 24.9283 184.72 25.5845C185.003 26.2408 185.401 26.7504 185.913 27.1133C186.43 27.4762 187.036 27.6577 187.732 27.6577C188.19 27.6577 188.605 27.5781 188.978 27.419C189.351 27.2599 189.666 27.0312 189.925 26.733C190.183 26.4347 190.367 26.0767 190.477 25.6591H192.237C192.137 26.3352 191.891 26.9442 191.498 27.4862C191.111 28.0231 190.596 28.4506 189.955 28.7688C189.318 29.082 188.578 29.2386 187.732 29.2386ZM199.822 29.2386C198.718 29.2386 197.766 28.995 196.966 28.5078C196.17 28.0156 195.556 27.3295 195.124 26.4496C194.696 25.5646 194.483 24.5355 194.483 23.3622C194.483 22.1889 194.696 21.1548 195.124 20.2599C195.556 19.3601 196.158 18.6591 196.929 18.157C197.704 17.6499 198.609 17.3963 199.643 17.3963C200.24 17.3963 200.829 17.4957 201.411 17.6946C201.992 17.8935 202.522 18.2166 202.999 18.6641C203.476 19.1065 203.857 19.6932 204.14 20.424C204.423 21.1548 204.565 22.0547 204.565 23.1236V23.8693H195.735V22.348H202.775C202.775 21.7017 202.646 21.125 202.387 20.6179C202.134 20.1108 201.771 19.7106 201.299 19.4173C200.831 19.1239 200.279 18.9773 199.643 18.9773C198.942 18.9773 198.336 19.1513 197.824 19.4993C197.316 19.8423 196.926 20.2898 196.653 20.8416C196.379 21.3935 196.243 21.9851 196.243 22.6165V23.6307C196.243 24.4957 196.392 25.229 196.69 25.8306C196.993 26.4272 197.413 26.8821 197.95 27.1953C198.487 27.5036 199.111 27.6577 199.822 27.6577C200.284 27.6577 200.702 27.593 201.075 27.4638C201.453 27.3295 201.778 27.1307 202.052 26.8672C202.325 26.5987 202.537 26.2656 202.686 25.8679L204.386 26.3452C204.207 26.9219 203.906 27.429 203.484 27.8665C203.061 28.299 202.539 28.6371 201.918 28.8807C201.296 29.1193 200.598 29.2386 199.822 29.2386Z" fill="white"/>
<path d="M94.293 60.7727C94.7765 59.6941 95.8484 59 97.0304 59H352.47C353.652 59 354.723 59.6941 355.207 60.7727L363.95 80.2727C364.3 81.0535 364.3 81.9465 363.95 82.7273L355.207 102.227C354.723 103.306 353.652 104 352.47 104H97.0304C95.8484 104 94.7765 103.306 94.293 102.227L85.5503 82.7273C85.2002 81.9465 85.2002 81.0535 85.5503 80.2727L94.293 60.7727Z" fill="black"/>
<path d="M121.562 88H116.849V72.7273H121.771C123.253 72.7273 124.521 73.033 125.575 73.6445C126.629 74.2511 127.436 75.1236 127.998 76.2621C128.56 77.3956 128.841 78.7528 128.841 80.3338C128.841 81.9247 128.558 83.2944 127.991 84.4428C127.424 85.5863 126.599 86.4663 125.515 87.0827C124.431 87.6942 123.114 88 121.562 88ZM118.699 86.3594H121.443C122.706 86.3594 123.752 86.1158 124.583 85.6286C125.413 85.1413 126.032 84.4478 126.44 83.5479C126.847 82.6481 127.051 81.5767 127.051 80.3338C127.051 79.1009 126.85 78.0394 126.447 77.1495C126.044 76.2546 125.443 75.5685 124.642 75.0913C123.842 74.609 122.845 74.3679 121.652 74.3679H118.699V86.3594ZM135.285 88.2685C134.559 88.2685 133.901 88.1317 133.309 87.8583C132.717 87.5799 132.248 87.1797 131.9 86.6577C131.552 86.1307 131.378 85.4943 131.378 84.7486C131.378 84.0923 131.507 83.5604 131.765 83.1527C132.024 82.7401 132.369 82.4169 132.802 82.1832C133.235 81.9496 133.712 81.7756 134.234 81.6612C134.761 81.5419 135.29 81.4474 135.822 81.3778C136.518 81.2884 137.083 81.2212 137.515 81.1765C137.953 81.1268 138.271 81.0447 138.47 80.9304C138.673 80.8161 138.775 80.6172 138.775 80.3338V80.2741C138.775 79.5384 138.574 78.9666 138.171 78.5589C137.774 78.1513 137.17 77.9474 136.359 77.9474C135.519 77.9474 134.86 78.1314 134.383 78.4993C133.906 78.8672 133.57 79.2599 133.376 79.6776L131.706 79.081C132.004 78.3849 132.402 77.843 132.899 77.4553C133.401 77.0625 133.948 76.7891 134.54 76.6349C135.136 76.4759 135.723 76.3963 136.299 76.3963C136.667 76.3963 137.09 76.4411 137.567 76.5305C138.049 76.6151 138.514 76.7915 138.962 77.06C139.414 77.3285 139.79 77.7337 140.088 78.2756C140.386 78.8175 140.535 79.5433 140.535 80.4531V88H138.775V86.4489H138.686C138.567 86.6974 138.368 86.9634 138.089 87.2468C137.811 87.5302 137.44 87.7713 136.978 87.9702C136.516 88.169 135.951 88.2685 135.285 88.2685ZM135.554 86.6875C136.25 86.6875 136.836 86.5508 137.314 86.2773C137.796 86.0039 138.159 85.6509 138.402 85.2184C138.651 84.7859 138.775 84.331 138.775 83.8537V82.2429C138.701 82.3324 138.537 82.4144 138.283 82.489C138.035 82.5586 137.746 82.6207 137.418 82.6754C137.095 82.7251 136.779 82.7699 136.471 82.8097C136.168 82.8445 135.922 82.8743 135.733 82.8991C135.275 82.9588 134.848 83.0558 134.45 83.19C134.057 83.3192 133.739 83.5156 133.496 83.7791C133.257 84.0376 133.138 84.3906 133.138 84.8381C133.138 85.4496 133.364 85.9119 133.816 86.2251C134.274 86.5334 134.853 86.6875 135.554 86.6875ZM148.939 76.5455V78.0369H143.003V76.5455H148.939ZM144.733 73.8011H146.493V84.7188C146.493 85.2159 146.565 85.5888 146.709 85.8374C146.858 86.081 147.047 86.245 147.276 86.3295C147.51 86.4091 147.756 86.4489 148.014 86.4489C148.208 86.4489 148.367 86.4389 148.492 86.419C148.616 86.3942 148.715 86.3743 148.79 86.3594L149.148 87.9403C149.029 87.9851 148.862 88.0298 148.648 88.0746C148.434 88.1243 148.164 88.1491 147.835 88.1491C147.338 88.1491 146.851 88.0423 146.374 87.8285C145.901 87.6147 145.509 87.2891 145.195 86.8516C144.887 86.4141 144.733 85.8622 144.733 85.196V73.8011ZM155.167 88.2685C154.441 88.2685 153.783 88.1317 153.191 87.8583C152.599 87.5799 152.13 87.1797 151.782 86.6577C151.434 86.1307 151.26 85.4943 151.26 84.7486C151.26 84.0923 151.389 83.5604 151.647 83.1527C151.906 82.7401 152.251 82.4169 152.684 82.1832C153.116 81.9496 153.594 81.7756 154.116 81.6612C154.643 81.5419 155.172 81.4474 155.704 81.3778C156.4 81.2884 156.964 81.2212 157.397 81.1765C157.834 81.1268 158.153 81.0447 158.352 80.9304C158.555 80.8161 158.657 80.6172 158.657 80.3338V80.2741C158.657 79.5384 158.456 78.9666 158.053 78.5589C157.655 78.1513 157.051 77.9474 156.241 77.9474C155.401 77.9474 154.742 78.1314 154.265 78.4993C153.788 78.8672 153.452 79.2599 153.258 79.6776L151.588 79.081C151.886 78.3849 152.284 77.843 152.781 77.4553C153.283 77.0625 153.83 76.7891 154.421 76.6349C155.018 76.4759 155.605 76.3963 156.181 76.3963C156.549 76.3963 156.972 76.4411 157.449 76.5305C157.931 76.6151 158.396 76.7915 158.844 77.06C159.296 77.3285 159.671 77.7337 159.97 78.2756C160.268 78.8175 160.417 79.5433 160.417 80.4531V88H158.657V86.4489H158.568C158.448 86.6974 158.25 86.9634 157.971 87.2468C157.693 87.5302 157.322 87.7713 156.86 87.9702C156.398 88.169 155.833 88.2685 155.167 88.2685ZM155.436 86.6875C156.132 86.6875 156.718 86.5508 157.196 86.2773C157.678 86.0039 158.041 85.6509 158.284 85.2184C158.533 84.7859 158.657 84.331 158.657 83.8537V82.2429C158.583 82.3324 158.419 82.4144 158.165 82.489C157.916 82.5586 157.628 82.6207 157.3 82.6754C156.977 82.7251 156.661 82.7699 156.353 82.8097C156.05 82.8445 155.804 82.8743 155.615 82.8991C155.157 82.9588 154.73 83.0558 154.332 83.19C153.939 83.3192 153.621 83.5156 153.377 83.7791C153.139 84.0376 153.019 84.3906 153.019 84.8381C153.019 85.4496 153.246 85.9119 153.698 86.2251C154.155 86.5334 154.735 86.6875 155.436 86.6875ZM170.402 80.6321V82.2727H163.72V80.6321H170.402ZM186.237 77.5H184.388C184.278 76.968 184.087 76.5007 183.813 76.098C183.545 75.6953 183.217 75.3572 182.829 75.0838C182.446 74.8054 182.021 74.5966 181.554 74.4574C181.086 74.3182 180.599 74.2486 180.092 74.2486C179.167 74.2486 178.33 74.4822 177.579 74.9496C176.833 75.4169 176.239 76.1055 175.797 77.0153C175.359 77.9251 175.14 79.0412 175.14 80.3636C175.14 81.6861 175.359 82.8022 175.797 83.712C176.239 84.6218 176.833 85.3104 177.579 85.7777C178.33 86.245 179.167 86.4787 180.092 86.4787C180.599 86.4787 181.086 86.4091 181.554 86.2699C182.021 86.1307 182.446 85.9244 182.829 85.6509C183.217 85.3725 183.545 85.032 183.813 84.6293C184.087 84.2216 184.278 83.7543 184.388 83.2273H186.237C186.098 84.0078 185.844 84.7063 185.476 85.3228C185.109 85.9393 184.651 86.4638 184.104 86.8963C183.557 87.3239 182.943 87.6495 182.262 87.8732C181.586 88.0969 180.863 88.2088 180.092 88.2088C178.79 88.2088 177.631 87.8906 176.617 87.2543C175.603 86.6179 174.805 85.7131 174.223 84.5398C173.642 83.3665 173.351 81.9744 173.351 80.3636C173.351 78.7528 173.642 77.3608 174.223 76.1875C174.805 75.0142 175.603 74.1094 176.617 73.473C177.631 72.8366 178.79 72.5185 180.092 72.5185C180.863 72.5185 181.586 72.6303 182.262 72.854C182.943 73.0778 183.557 73.4059 184.104 73.8384C184.651 74.266 185.109 74.788 185.476 75.4045C185.844 76.016 186.098 76.7145 186.237 77.5ZM194 88.2386C192.896 88.2386 191.944 87.995 191.143 87.5078C190.348 87.0156 189.734 86.3295 189.301 85.4496C188.874 84.5646 188.66 83.5355 188.66 82.3622C188.66 81.1889 188.874 80.1548 189.301 79.2599C189.734 78.3601 190.335 77.6591 191.106 77.157C191.882 76.6499 192.786 76.3963 193.821 76.3963C194.417 76.3963 195.006 76.4957 195.588 76.6946C196.17 76.8935 196.699 77.2166 197.176 77.6641C197.654 78.1065 198.034 78.6932 198.317 79.424C198.601 80.1548 198.742 81.0547 198.742 82.1236V82.8693H189.913V81.348H196.953C196.953 80.7017 196.823 80.125 196.565 79.6179C196.311 79.1108 195.948 78.7106 195.476 78.4173C195.009 78.1239 194.457 77.9773 193.821 77.9773C193.12 77.9773 192.513 78.1513 192.001 78.4993C191.494 78.8423 191.104 79.2898 190.83 79.8416C190.557 80.3935 190.42 80.9851 190.42 81.6165V82.6307C190.42 83.4957 190.569 84.229 190.867 84.8306C191.171 85.4272 191.591 85.8821 192.128 86.1953C192.665 86.5036 193.289 86.6577 194 86.6577C194.462 86.6577 194.879 86.593 195.252 86.4638C195.63 86.3295 195.956 86.1307 196.229 85.8672C196.503 85.5987 196.714 85.2656 196.863 84.8679L198.563 85.3452C198.384 85.9219 198.084 86.429 197.661 86.8665C197.239 87.299 196.717 87.6371 196.095 87.8807C195.474 88.1193 194.775 88.2386 194 88.2386ZM203.39 81.1094V88H201.63V76.5455H203.33V78.3352H203.479C203.748 77.7536 204.155 77.2862 204.702 76.9332C205.249 76.5753 205.955 76.3963 206.82 76.3963C207.596 76.3963 208.274 76.5554 208.856 76.8736C209.438 77.1868 209.89 77.6641 210.213 78.3054C210.536 78.9418 210.698 79.7472 210.698 80.7216V88H208.938V80.8409C208.938 79.9411 208.704 79.2401 208.237 78.7379C207.77 78.2308 207.128 77.9773 206.313 77.9773C205.751 77.9773 205.249 78.0991 204.806 78.3427C204.369 78.5863 204.023 78.9418 203.77 79.4091C203.516 79.8764 203.39 80.4432 203.39 81.1094ZM219.105 76.5455V78.0369H213.169V76.5455H219.105ZM214.899 73.8011H216.659V84.7188C216.659 85.2159 216.731 85.5888 216.876 85.8374C217.025 86.081 217.214 86.245 217.442 86.3295C217.676 86.4091 217.922 86.4489 218.181 86.4489C218.375 86.4489 218.534 86.4389 218.658 86.419C218.782 86.3942 218.882 86.3743 218.956 86.3594L219.314 87.9403C219.195 87.9851 219.028 88.0298 218.814 88.0746C218.601 88.1243 218.33 88.1491 218.002 88.1491C217.504 88.1491 217.017 88.0423 216.54 87.8285C216.068 87.6147 215.675 87.2891 215.362 86.8516C215.053 86.4141 214.899 85.8622 214.899 85.196V73.8011ZM221.963 88V76.5455H223.663V78.2756H223.782C223.991 77.7088 224.369 77.2489 224.916 76.896C225.463 76.543 226.079 76.3665 226.765 76.3665C226.895 76.3665 227.056 76.369 227.25 76.3739C227.444 76.3789 227.591 76.3864 227.69 76.3963V78.1861C227.63 78.1712 227.494 78.1488 227.28 78.119C227.071 78.0842 226.85 78.0668 226.616 78.0668C226.059 78.0668 225.562 78.1836 225.125 78.4173C224.692 78.646 224.349 78.9641 224.096 79.3718C223.847 79.7745 223.723 80.2344 223.723 80.7514V88H221.963ZM229.986 88V76.5455H231.746V88H229.986ZM230.881 74.6364C230.538 74.6364 230.242 74.5195 229.994 74.2859C229.75 74.0522 229.628 73.7713 229.628 73.4432C229.628 73.1151 229.75 72.8342 229.994 72.6005C230.242 72.3668 230.538 72.25 230.881 72.25C231.224 72.25 231.517 72.3668 231.761 72.6005C232.01 72.8342 232.134 73.1151 232.134 73.4432C232.134 73.7713 232.01 74.0522 231.761 74.2859C231.517 74.5195 231.224 74.6364 230.881 74.6364ZM239.833 88.2386C238.759 88.2386 237.834 87.9851 237.059 87.478C236.283 86.9709 235.687 86.2724 235.269 85.3825C234.851 84.4925 234.643 83.4759 234.643 82.3324C234.643 81.169 234.856 80.1424 235.284 79.2525C235.717 78.3576 236.318 77.6591 237.089 77.157C237.864 76.6499 238.769 76.3963 239.803 76.3963C240.609 76.3963 241.334 76.5455 241.981 76.8438C242.627 77.142 243.157 77.5597 243.569 78.0966C243.982 78.6335 244.238 79.2599 244.337 79.9759H242.577C242.443 79.4538 242.145 78.9915 241.682 78.5888C241.225 78.1811 240.609 77.9773 239.833 77.9773C239.147 77.9773 238.545 78.1562 238.028 78.5142C237.516 78.8672 237.116 79.3668 236.828 80.0131C236.544 80.6545 236.403 81.4077 236.403 82.2727C236.403 83.1577 236.542 83.9283 236.82 84.5845C237.104 85.2408 237.501 85.7504 238.013 86.1133C238.53 86.4762 239.137 86.6577 239.833 86.6577C240.29 86.6577 240.706 86.5781 241.078 86.419C241.451 86.2599 241.767 86.0312 242.025 85.733C242.284 85.4347 242.468 85.0767 242.577 84.6591H244.337C244.238 85.3352 243.992 85.9442 243.599 86.4862C243.211 87.0231 242.697 87.4506 242.055 87.7688C241.419 88.082 240.678 88.2386 239.833 88.2386ZM261.827 76.5455C261.738 75.7898 261.375 75.2031 260.738 74.7855C260.102 74.3679 259.322 74.1591 258.397 74.1591C257.721 74.1591 257.129 74.2685 256.622 74.4872C256.12 74.706 255.727 75.0067 255.444 75.3896C255.165 75.7724 255.026 76.2074 255.026 76.6946C255.026 77.1023 255.123 77.4528 255.317 77.7461C255.516 78.0344 255.769 78.2756 256.078 78.4695C256.386 78.6584 256.709 78.815 257.047 78.9393C257.385 79.0586 257.696 79.1555 257.979 79.2301L259.53 79.6477C259.928 79.7521 260.371 79.8963 260.858 80.0803C261.35 80.2642 261.82 80.5153 262.267 80.8335C262.72 81.1467 263.092 81.5494 263.386 82.0415C263.679 82.5337 263.826 83.1378 263.826 83.8537C263.826 84.679 263.61 85.4247 263.177 86.0909C262.749 86.7571 262.123 87.2866 261.298 87.6793C260.477 88.0721 259.481 88.2685 258.307 88.2685C257.214 88.2685 256.266 88.092 255.466 87.739C254.671 87.386 254.044 86.8938 253.587 86.2624C253.134 85.631 252.878 84.8977 252.819 84.0625H254.728C254.777 84.6392 254.971 85.1165 255.309 85.4943C255.652 85.8672 256.085 86.1456 256.607 86.3295C257.134 86.5085 257.701 86.598 258.307 86.598C259.013 86.598 259.647 86.4837 260.209 86.255C260.771 86.0213 261.216 85.6982 261.544 85.2855C261.872 84.8679 262.036 84.3807 262.036 83.8239C262.036 83.3168 261.894 82.9041 261.611 82.5859C261.328 82.2678 260.955 82.0092 260.492 81.8104C260.03 81.6115 259.53 81.4375 258.993 81.2884L257.114 80.7514C255.921 80.4084 254.976 79.9187 254.28 79.2823C253.584 78.646 253.236 77.8132 253.236 76.7841C253.236 75.929 253.467 75.1832 253.93 74.5469C254.397 73.9055 255.024 73.4084 255.809 73.0554C256.6 72.6974 257.482 72.5185 258.456 72.5185C259.441 72.5185 260.316 72.695 261.081 73.0479C261.847 73.396 262.454 73.8732 262.901 74.4798C263.353 75.0863 263.592 75.7749 263.617 76.5455H261.827ZM271.64 88.2386C270.537 88.2386 269.585 87.995 268.784 87.5078C267.989 87.0156 267.375 86.3295 266.942 85.4496C266.515 84.5646 266.301 83.5355 266.301 82.3622C266.301 81.1889 266.515 80.1548 266.942 79.2599C267.375 78.3601 267.976 77.6591 268.747 77.157C269.523 76.6499 270.427 76.3963 271.461 76.3963C272.058 76.3963 272.647 76.4957 273.229 76.6946C273.811 76.8935 274.34 77.2166 274.817 77.6641C275.295 78.1065 275.675 78.6932 275.958 79.424C276.242 80.1548 276.383 81.0547 276.383 82.1236V82.8693H267.554V81.348H274.594C274.594 80.7017 274.464 80.125 274.206 79.6179C273.952 79.1108 273.589 78.7106 273.117 78.4173C272.65 78.1239 272.098 77.9773 271.461 77.9773C270.76 77.9773 270.154 78.1513 269.642 78.4993C269.135 78.8423 268.745 79.2898 268.471 79.8416C268.198 80.3935 268.061 80.9851 268.061 81.6165V82.6307C268.061 83.4957 268.21 84.229 268.508 84.8306C268.812 85.4272 269.232 85.8821 269.769 86.1953C270.306 86.5036 270.93 86.6577 271.64 86.6577C272.103 86.6577 272.52 86.593 272.893 86.4638C273.271 86.3295 273.597 86.1307 273.87 85.8672C274.144 85.5987 274.355 85.2656 274.504 84.8679L276.204 85.3452C276.025 85.9219 275.725 86.429 275.302 86.8665C274.879 87.299 274.357 87.6371 273.736 87.8807C273.115 88.1193 272.416 88.2386 271.64 88.2386ZM283.924 88.2386C282.85 88.2386 281.925 87.9851 281.15 87.478C280.374 86.9709 279.778 86.2724 279.36 85.3825C278.942 84.4925 278.734 83.4759 278.734 82.3324C278.734 81.169 278.947 80.1424 279.375 79.2525C279.807 78.3576 280.409 77.6591 281.18 77.157C281.955 76.6499 282.86 76.3963 283.894 76.3963C284.7 76.3963 285.425 76.5455 286.072 76.8438C286.718 77.142 287.247 77.5597 287.66 78.0966C288.073 78.6335 288.329 79.2599 288.428 79.9759H286.668C286.534 79.4538 286.236 78.9915 285.773 78.5888C285.316 78.1811 284.7 77.9773 283.924 77.9773C283.238 77.9773 282.636 78.1562 282.119 78.5142C281.607 78.8672 281.207 79.3668 280.919 80.0131C280.635 80.6545 280.494 81.4077 280.494 82.2727C280.494 83.1577 280.633 83.9283 280.911 84.5845C281.195 85.2408 281.592 85.7504 282.104 86.1133C282.621 86.4762 283.228 86.6577 283.924 86.6577C284.381 86.6577 284.796 86.5781 285.169 86.419C285.542 86.2599 285.858 86.0312 286.116 85.733C286.375 85.4347 286.559 85.0767 286.668 84.6591H288.428C288.329 85.3352 288.083 85.9442 287.69 86.4862C287.302 87.0231 286.788 87.4506 286.146 87.7688C285.51 88.082 284.769 88.2386 283.924 88.2386ZM298.43 83.3168V76.5455H300.19V88H298.43V86.0611H298.31C298.042 86.6428 297.624 87.1374 297.058 87.5451C296.491 87.9478 295.775 88.1491 294.91 88.1491C294.194 88.1491 293.558 87.9925 293.001 87.6793C292.444 87.3612 292.006 86.8839 291.688 86.2475C291.37 85.6062 291.211 84.7983 291.211 83.8239V76.5455H292.971V83.7045C292.971 84.5398 293.205 85.206 293.672 85.7031C294.144 86.2003 294.746 86.4489 295.477 86.4489C295.914 86.4489 296.359 86.337 296.812 86.1133C297.269 85.8896 297.652 85.5465 297.96 85.0842C298.273 84.6218 298.43 84.0327 298.43 83.3168ZM303.623 88V76.5455H305.323V78.2756H305.443C305.652 77.7088 306.029 77.2489 306.576 76.896C307.123 76.543 307.74 76.3665 308.426 76.3665C308.555 76.3665 308.717 76.369 308.91 76.3739C309.104 76.3789 309.251 76.3864 309.35 76.3963V78.1861C309.291 78.1712 309.154 78.1488 308.94 78.119C308.731 78.0842 308.51 78.0668 308.277 78.0668C307.72 78.0668 307.223 78.1836 306.785 78.4173C306.353 78.646 306.01 78.9641 305.756 79.3718C305.507 79.7745 305.383 80.2344 305.383 80.7514V88H303.623ZM311.647 88V76.5455H313.407V88H311.647ZM312.542 74.6364C312.199 74.6364 311.903 74.5195 311.654 74.2859C311.411 74.0522 311.289 73.7713 311.289 73.4432C311.289 73.1151 311.411 72.8342 311.654 72.6005C311.903 72.3668 312.199 72.25 312.542 72.25C312.885 72.25 313.178 72.3668 313.422 72.6005C313.67 72.8342 313.794 73.1151 313.794 73.4432C313.794 73.7713 313.67 74.0522 313.422 74.2859C313.178 74.5195 312.885 74.6364 312.542 74.6364ZM321.822 76.5455V78.0369H315.886V76.5455H321.822ZM317.616 73.8011H319.376V84.7188C319.376 85.2159 319.448 85.5888 319.592 85.8374C319.741 86.081 319.93 86.245 320.159 86.3295C320.392 86.4091 320.638 86.4489 320.897 86.4489C321.091 86.4489 321.25 86.4389 321.374 86.419C321.498 86.3942 321.598 86.3743 321.672 86.3594L322.03 87.9403C321.911 87.9851 321.745 88.0298 321.531 88.0746C321.317 88.1243 321.046 88.1491 320.718 88.1491C320.221 88.1491 319.734 88.0423 319.256 87.8285C318.784 87.6147 318.391 87.2891 318.078 86.8516C317.77 86.4141 317.616 85.8622 317.616 85.196V73.8011ZM325.812 92.2955C325.514 92.2955 325.248 92.2706 325.015 92.2209C324.781 92.1761 324.619 92.1314 324.53 92.0866L324.977 90.5355C325.405 90.6449 325.783 90.6847 326.111 90.6548C326.439 90.625 326.73 90.4783 326.983 90.2148C327.242 89.9563 327.478 89.5362 327.692 88.9545L328.02 88.0597L323.784 76.5455H325.693L328.855 85.6733H328.974L332.136 76.5455H334.045L329.183 89.6705C328.964 90.2621 328.694 90.7518 328.37 91.1396C328.047 91.5323 327.672 91.8232 327.244 92.0121C326.822 92.201 326.344 92.2955 325.812 92.2955Z" fill="white"/>
<path d="M169.293 178.773C169.777 177.694 170.848 177 172.03 177H351.97C353.152 177 354.223 177.694 354.707 178.773L363.45 198.273C363.8 199.053 363.8 199.947 363.45 200.727L354.707 220.227C354.223 221.306 353.152 222 351.97 222H172.03C170.848 222 169.777 221.306 169.293 220.227L160.55 200.727C160.2 199.947 160.2 199.053 160.55 198.273L169.293 178.773Z" fill="black"/>
<path d="M199.562 206H194.849V190.727H199.771C201.253 190.727 202.521 191.033 203.575 191.645C204.629 192.251 205.436 193.124 205.998 194.262C206.56 195.396 206.841 196.753 206.841 198.334C206.841 199.925 206.558 201.294 205.991 202.443C205.424 203.586 204.599 204.466 203.515 205.083C202.431 205.694 201.114 206 199.562 206ZM196.699 204.359H199.443C200.706 204.359 201.752 204.116 202.583 203.629C203.413 203.141 204.032 202.448 204.44 201.548C204.847 200.648 205.051 199.577 205.051 198.334C205.051 197.101 204.85 196.039 204.447 195.15C204.044 194.255 203.443 193.569 202.642 193.091C201.842 192.609 200.845 192.368 199.652 192.368H196.699V204.359ZM213.285 206.268C212.559 206.268 211.901 206.132 211.309 205.858C210.717 205.58 210.248 205.18 209.9 204.658C209.552 204.131 209.378 203.494 209.378 202.749C209.378 202.092 209.507 201.56 209.765 201.153C210.024 200.74 210.369 200.417 210.802 200.183C211.235 199.95 211.712 199.776 212.234 199.661C212.761 199.542 213.29 199.447 213.822 199.378C214.518 199.288 215.083 199.221 215.515 199.176C215.953 199.127 216.271 199.045 216.47 198.93C216.673 198.816 216.775 198.617 216.775 198.334V198.274C216.775 197.538 216.574 196.967 216.171 196.559C215.774 196.151 215.17 195.947 214.359 195.947C213.519 195.947 212.86 196.131 212.383 196.499C211.906 196.867 211.57 197.26 211.376 197.678L209.706 197.081C210.004 196.385 210.402 195.843 210.899 195.455C211.401 195.062 211.948 194.789 212.54 194.635C213.136 194.476 213.723 194.396 214.299 194.396C214.667 194.396 215.09 194.441 215.567 194.531C216.049 194.615 216.514 194.792 216.962 195.06C217.414 195.328 217.79 195.734 218.088 196.276C218.386 196.817 218.535 197.543 218.535 198.453V206H216.775V204.449H216.686C216.567 204.697 216.368 204.963 216.089 205.247C215.811 205.53 215.44 205.771 214.978 205.97C214.516 206.169 213.951 206.268 213.285 206.268ZM213.554 204.688C214.25 204.688 214.836 204.551 215.314 204.277C215.796 204.004 216.159 203.651 216.402 203.218C216.651 202.786 216.775 202.331 216.775 201.854V200.243C216.701 200.332 216.537 200.414 216.283 200.489C216.035 200.559 215.746 200.621 215.418 200.675C215.095 200.725 214.779 200.77 214.471 200.81C214.168 200.844 213.922 200.874 213.733 200.899C213.275 200.959 212.848 201.056 212.45 201.19C212.057 201.319 211.739 201.516 211.496 201.779C211.257 202.038 211.138 202.391 211.138 202.838C211.138 203.45 211.364 203.912 211.816 204.225C212.274 204.533 212.853 204.688 213.554 204.688ZM226.939 194.545V196.037H221.003V194.545H226.939ZM222.733 191.801H224.493V202.719C224.493 203.216 224.565 203.589 224.709 203.837C224.858 204.081 225.047 204.245 225.276 204.33C225.51 204.409 225.756 204.449 226.014 204.449C226.208 204.449 226.367 204.439 226.492 204.419C226.616 204.394 226.715 204.374 226.79 204.359L227.148 205.94C227.029 205.985 226.862 206.03 226.648 206.075C226.434 206.124 226.164 206.149 225.835 206.149C225.338 206.149 224.851 206.042 224.374 205.828C223.901 205.615 223.509 205.289 223.195 204.852C222.887 204.414 222.733 203.862 222.733 203.196V191.801ZM233.167 206.268C232.441 206.268 231.783 206.132 231.191 205.858C230.599 205.58 230.13 205.18 229.782 204.658C229.434 204.131 229.26 203.494 229.26 202.749C229.26 202.092 229.389 201.56 229.647 201.153C229.906 200.74 230.251 200.417 230.684 200.183C231.116 199.95 231.594 199.776 232.116 199.661C232.643 199.542 233.172 199.447 233.704 199.378C234.4 199.288 234.964 199.221 235.397 199.176C235.834 199.127 236.153 199.045 236.352 198.93C236.555 198.816 236.657 198.617 236.657 198.334V198.274C236.657 197.538 236.456 196.967 236.053 196.559C235.655 196.151 235.051 195.947 234.241 195.947C233.401 195.947 232.742 196.131 232.265 196.499C231.788 196.867 231.452 197.26 231.258 197.678L229.588 197.081C229.886 196.385 230.284 195.843 230.781 195.455C231.283 195.062 231.83 194.789 232.421 194.635C233.018 194.476 233.605 194.396 234.181 194.396C234.549 194.396 234.972 194.441 235.449 194.531C235.931 194.615 236.396 194.792 236.844 195.06C237.296 195.328 237.671 195.734 237.97 196.276C238.268 196.817 238.417 197.543 238.417 198.453V206H236.657V204.449H236.568C236.448 204.697 236.25 204.963 235.971 205.247C235.693 205.53 235.322 205.771 234.86 205.97C234.398 206.169 233.833 206.268 233.167 206.268ZM233.436 204.688C234.132 204.688 234.718 204.551 235.196 204.277C235.678 204.004 236.041 203.651 236.284 203.218C236.533 202.786 236.657 202.331 236.657 201.854V200.243C236.583 200.332 236.419 200.414 236.165 200.489C235.916 200.559 235.628 200.621 235.3 200.675C234.977 200.725 234.661 200.77 234.353 200.81C234.05 200.844 233.804 200.874 233.615 200.899C233.157 200.959 232.73 201.056 232.332 201.19C231.939 201.319 231.621 201.516 231.377 201.779C231.139 202.038 231.019 202.391 231.019 202.838C231.019 203.45 231.246 203.912 231.698 204.225C232.155 204.533 232.735 204.688 233.436 204.688ZM256.547 194.545C256.457 193.79 256.094 193.203 255.458 192.786C254.821 192.368 254.041 192.159 253.116 192.159C252.44 192.159 251.848 192.268 251.341 192.487C250.839 192.706 250.446 193.007 250.163 193.39C249.885 193.772 249.745 194.207 249.745 194.695C249.745 195.102 249.842 195.453 250.036 195.746C250.235 196.034 250.489 196.276 250.797 196.469C251.105 196.658 251.428 196.815 251.766 196.939C252.105 197.059 252.415 197.156 252.699 197.23L254.25 197.648C254.647 197.752 255.09 197.896 255.577 198.08C256.069 198.264 256.539 198.515 256.987 198.833C257.439 199.147 257.812 199.549 258.105 200.042C258.399 200.534 258.545 201.138 258.545 201.854C258.545 202.679 258.329 203.425 257.896 204.091C257.469 204.757 256.842 205.287 256.017 205.679C255.197 206.072 254.2 206.268 253.027 206.268C251.933 206.268 250.986 206.092 250.185 205.739C249.39 205.386 248.764 204.894 248.306 204.262C247.854 203.631 247.598 202.898 247.538 202.062H249.447C249.497 202.639 249.691 203.116 250.029 203.494C250.372 203.867 250.804 204.146 251.326 204.33C251.853 204.509 252.42 204.598 253.027 204.598C253.733 204.598 254.367 204.484 254.928 204.255C255.49 204.021 255.935 203.698 256.263 203.286C256.591 202.868 256.755 202.381 256.755 201.824C256.755 201.317 256.614 200.904 256.33 200.586C256.047 200.268 255.674 200.009 255.212 199.81C254.749 199.612 254.25 199.437 253.713 199.288L251.834 198.751C250.64 198.408 249.696 197.919 249 197.282C248.304 196.646 247.956 195.813 247.956 194.784C247.956 193.929 248.187 193.183 248.649 192.547C249.117 191.906 249.743 191.408 250.529 191.055C251.319 190.697 252.201 190.518 253.176 190.518C254.16 190.518 255.035 190.695 255.801 191.048C256.567 191.396 257.173 191.873 257.62 192.48C258.073 193.086 258.312 193.775 258.336 194.545H256.547ZM266.36 206.239C265.256 206.239 264.304 205.995 263.504 205.508C262.708 205.016 262.094 204.33 261.662 203.45C261.234 202.565 261.02 201.536 261.02 200.362C261.02 199.189 261.234 198.155 261.662 197.26C262.094 196.36 262.696 195.659 263.466 195.157C264.242 194.65 265.147 194.396 266.181 194.396C266.777 194.396 267.367 194.496 267.948 194.695C268.53 194.893 269.059 195.217 269.537 195.664C270.014 196.107 270.394 196.693 270.678 197.424C270.961 198.155 271.103 199.055 271.103 200.124V200.869H262.273V199.348H269.313C269.313 198.702 269.184 198.125 268.925 197.618C268.672 197.111 268.309 196.711 267.836 196.417C267.369 196.124 266.817 195.977 266.181 195.977C265.48 195.977 264.873 196.151 264.361 196.499C263.854 196.842 263.464 197.29 263.19 197.842C262.917 198.393 262.78 198.985 262.78 199.616V200.631C262.78 201.496 262.929 202.229 263.228 202.831C263.531 203.427 263.951 203.882 264.488 204.195C265.025 204.504 265.649 204.658 266.36 204.658C266.822 204.658 267.24 204.593 267.613 204.464C267.991 204.33 268.316 204.131 268.59 203.867C268.863 203.599 269.074 203.266 269.224 202.868L270.924 203.345C270.745 203.922 270.444 204.429 270.021 204.866C269.599 205.299 269.077 205.637 268.455 205.881C267.834 206.119 267.135 206.239 266.36 206.239ZM278.643 206.239C277.57 206.239 276.645 205.985 275.869 205.478C275.094 204.971 274.497 204.272 274.079 203.382C273.662 202.493 273.453 201.476 273.453 200.332C273.453 199.169 273.667 198.142 274.094 197.252C274.527 196.358 275.128 195.659 275.899 195.157C276.675 194.65 277.579 194.396 278.614 194.396C279.419 194.396 280.145 194.545 280.791 194.844C281.437 195.142 281.967 195.56 282.38 196.097C282.792 196.634 283.048 197.26 283.148 197.976H281.388C281.253 197.454 280.955 196.991 280.493 196.589C280.035 196.181 279.419 195.977 278.643 195.977C277.957 195.977 277.356 196.156 276.839 196.514C276.327 196.867 275.926 197.367 275.638 198.013C275.355 198.654 275.213 199.408 275.213 200.273C275.213 201.158 275.352 201.928 275.631 202.585C275.914 203.241 276.312 203.75 276.824 204.113C277.341 204.476 277.947 204.658 278.643 204.658C279.101 204.658 279.516 204.578 279.889 204.419C280.262 204.26 280.577 204.031 280.836 203.733C281.094 203.435 281.278 203.077 281.388 202.659H283.148C283.048 203.335 282.802 203.944 282.409 204.486C282.022 205.023 281.507 205.451 280.866 205.769C280.229 206.082 279.489 206.239 278.643 206.239ZM293.149 201.317V194.545H294.909V206H293.149V204.061H293.03C292.761 204.643 292.344 205.137 291.777 205.545C291.21 205.948 290.494 206.149 289.629 206.149C288.913 206.149 288.277 205.993 287.72 205.679C287.163 205.361 286.726 204.884 286.408 204.248C286.09 203.606 285.93 202.798 285.93 201.824V194.545H287.69V201.705C287.69 202.54 287.924 203.206 288.391 203.703C288.864 204.2 289.465 204.449 290.196 204.449C290.634 204.449 291.079 204.337 291.531 204.113C291.988 203.89 292.371 203.547 292.679 203.084C292.993 202.622 293.149 202.033 293.149 201.317ZM298.343 206V194.545H300.043V196.276H300.162C300.371 195.709 300.749 195.249 301.296 194.896C301.843 194.543 302.459 194.366 303.145 194.366C303.274 194.366 303.436 194.369 303.63 194.374C303.824 194.379 303.97 194.386 304.07 194.396V196.186C304.01 196.171 303.873 196.149 303.66 196.119C303.451 196.084 303.23 196.067 302.996 196.067C302.439 196.067 301.942 196.184 301.505 196.417C301.072 196.646 300.729 196.964 300.475 197.372C300.227 197.775 300.103 198.234 300.103 198.751V206H298.343ZM306.366 206V194.545H308.126V206H306.366ZM307.261 192.636C306.918 192.636 306.622 192.52 306.374 192.286C306.13 192.052 306.008 191.771 306.008 191.443C306.008 191.115 306.13 190.834 306.374 190.6C306.622 190.367 306.918 190.25 307.261 190.25C307.604 190.25 307.897 190.367 308.141 190.6C308.39 190.834 308.514 191.115 308.514 191.443C308.514 191.771 308.39 192.052 308.141 192.286C307.897 192.52 307.604 192.636 307.261 192.636ZM316.541 194.545V196.037H310.605V194.545H316.541ZM312.335 191.801H314.095V202.719C314.095 203.216 314.167 203.589 314.311 203.837C314.46 204.081 314.649 204.245 314.878 204.33C315.112 204.409 315.358 204.449 315.616 204.449C315.81 204.449 315.969 204.439 316.094 204.419C316.218 204.394 316.317 204.374 316.392 204.359L316.75 205.94C316.63 205.985 316.464 206.03 316.25 206.075C316.036 206.124 315.765 206.149 315.437 206.149C314.94 206.149 314.453 206.042 313.976 205.828C313.503 205.615 313.111 205.289 312.797 204.852C312.489 204.414 312.335 203.862 312.335 203.196V191.801ZM320.532 210.295C320.234 210.295 319.968 210.271 319.734 210.221C319.5 210.176 319.339 210.131 319.249 210.087L319.697 208.536C320.124 208.645 320.502 208.685 320.83 208.655C321.158 208.625 321.449 208.478 321.703 208.215C321.961 207.956 322.197 207.536 322.411 206.955L322.739 206.06L318.503 194.545H320.413L323.575 203.673H323.694L326.856 194.545H328.765L323.903 207.67C323.684 208.262 323.413 208.752 323.09 209.14C322.767 209.532 322.391 209.823 321.964 210.012C321.541 210.201 321.064 210.295 320.532 210.295Z" fill="white"/>
<path d="M126.293 119.773C126.777 118.694 127.848 118 129.03 118H452.97C454.152 118 455.223 118.694 455.707 119.773L464.45 139.273C464.8 140.053 464.8 140.947 464.45 141.727L455.707 161.227C455.223 162.306 454.152 163 452.97 163H129.03C127.848 163 126.777 162.306 126.293 161.227L117.55 141.727C117.2 140.947 117.2 140.053 117.55 139.273L126.293 119.773Z" fill="black"/>
<path d="M161.139 138.5H159.29C159.18 137.968 158.989 137.501 158.716 137.098C158.447 136.695 158.119 136.357 157.731 136.084C157.348 135.805 156.923 135.597 156.456 135.457C155.989 135.318 155.501 135.249 154.994 135.249C154.07 135.249 153.232 135.482 152.481 135.95C151.735 136.417 151.141 137.105 150.699 138.015C150.261 138.925 150.043 140.041 150.043 141.364C150.043 142.686 150.261 143.802 150.699 144.712C151.141 145.622 151.735 146.31 152.481 146.778C153.232 147.245 154.07 147.479 154.994 147.479C155.501 147.479 155.989 147.409 156.456 147.27C156.923 147.131 157.348 146.924 157.731 146.651C158.119 146.373 158.447 146.032 158.716 145.629C158.989 145.222 159.18 144.754 159.29 144.227H161.139C161 145.008 160.746 145.706 160.379 146.323C160.011 146.939 159.553 147.464 159.006 147.896C158.46 148.324 157.846 148.65 157.164 148.873C156.488 149.097 155.765 149.209 154.994 149.209C153.692 149.209 152.533 148.891 151.519 148.254C150.505 147.618 149.707 146.713 149.125 145.54C148.544 144.366 148.253 142.974 148.253 141.364C148.253 139.753 148.544 138.361 149.125 137.188C149.707 136.014 150.505 135.109 151.519 134.473C152.533 133.837 153.692 133.518 154.994 133.518C155.765 133.518 156.488 133.63 157.164 133.854C157.846 134.078 158.46 134.406 159.006 134.838C159.553 135.266 160.011 135.788 160.379 136.404C160.746 137.016 161 137.714 161.139 138.5ZM165.859 133.727V149H164.099V133.727H165.859ZM173.946 149.239C172.912 149.239 172.005 148.993 171.224 148.5C170.448 148.008 169.842 147.32 169.404 146.435C168.972 145.55 168.756 144.516 168.756 143.332C168.756 142.139 168.972 141.098 169.404 140.208C169.842 139.318 170.448 138.627 171.224 138.135C172.005 137.642 172.912 137.396 173.946 137.396C174.98 137.396 175.885 137.642 176.66 138.135C177.441 138.627 178.047 139.318 178.48 140.208C178.918 141.098 179.136 142.139 179.136 143.332C179.136 144.516 178.918 145.55 178.48 146.435C178.047 147.32 177.441 148.008 176.66 148.5C175.885 148.993 174.98 149.239 173.946 149.239ZM173.946 147.658C174.731 147.658 175.378 147.456 175.885 147.054C176.392 146.651 176.767 146.121 177.011 145.465C177.255 144.809 177.376 144.098 177.376 143.332C177.376 142.567 177.255 141.853 177.011 141.192C176.767 140.531 176.392 139.996 175.885 139.589C175.378 139.181 174.731 138.977 173.946 138.977C173.16 138.977 172.514 139.181 172.007 139.589C171.5 139.996 171.125 140.531 170.881 141.192C170.637 141.853 170.516 142.567 170.516 143.332C170.516 144.098 170.637 144.809 170.881 145.465C171.125 146.121 171.5 146.651 172.007 147.054C172.514 147.456 173.16 147.658 173.946 147.658ZM189.252 144.317V137.545H191.011V149H189.252V147.061H189.132C188.864 147.643 188.446 148.137 187.879 148.545C187.313 148.948 186.597 149.149 185.732 149.149C185.016 149.149 184.379 148.993 183.823 148.679C183.266 148.361 182.828 147.884 182.51 147.248C182.192 146.606 182.033 145.798 182.033 144.824V137.545H183.793V144.705C183.793 145.54 184.026 146.206 184.494 146.703C184.966 147.2 185.568 147.449 186.298 147.449C186.736 147.449 187.181 147.337 187.633 147.113C188.091 146.89 188.473 146.547 188.782 146.084C189.095 145.622 189.252 145.033 189.252 144.317ZM198.77 149.239C197.816 149.239 196.973 148.998 196.242 148.515C195.511 148.028 194.94 147.342 194.527 146.457C194.114 145.567 193.908 144.516 193.908 143.303C193.908 142.099 194.114 141.055 194.527 140.17C194.94 139.286 195.514 138.602 196.25 138.12C196.985 137.637 197.836 137.396 198.8 137.396C199.546 137.396 200.135 137.521 200.567 137.769C201.005 138.013 201.338 138.291 201.567 138.604C201.8 138.913 201.982 139.166 202.111 139.365H202.26V133.727H204.02V149H202.32V147.24H202.111C201.982 147.449 201.798 147.712 201.559 148.031C201.321 148.344 200.98 148.625 200.538 148.873C200.095 149.117 199.506 149.239 198.77 149.239ZM199.009 147.658C199.715 147.658 200.311 147.474 200.799 147.106C201.286 146.733 201.656 146.218 201.91 145.562C202.163 144.901 202.29 144.138 202.29 143.273C202.29 142.418 202.166 141.669 201.917 141.028C201.669 140.382 201.301 139.88 200.814 139.522C200.326 139.159 199.725 138.977 199.009 138.977C198.263 138.977 197.642 139.169 197.145 139.551C196.652 139.929 196.282 140.444 196.033 141.095C195.79 141.741 195.668 142.467 195.668 143.273C195.668 144.088 195.792 144.829 196.041 145.495C196.294 146.156 196.667 146.683 197.159 147.076C197.657 147.464 198.273 147.658 199.009 147.658ZM226.343 138.5H224.493C224.384 137.968 224.192 137.501 223.919 137.098C223.65 136.695 223.322 136.357 222.935 136.084C222.552 135.805 222.127 135.597 221.659 135.457C221.192 135.318 220.705 135.249 220.198 135.249C219.273 135.249 218.435 135.482 217.685 135.95C216.939 136.417 216.345 137.105 215.902 138.015C215.465 138.925 215.246 140.041 215.246 141.364C215.246 142.686 215.465 143.802 215.902 144.712C216.345 145.622 216.939 146.31 217.685 146.778C218.435 147.245 219.273 147.479 220.198 147.479C220.705 147.479 221.192 147.409 221.659 147.27C222.127 147.131 222.552 146.924 222.935 146.651C223.322 146.373 223.65 146.032 223.919 145.629C224.192 145.222 224.384 144.754 224.493 144.227H226.343C226.203 145.008 225.95 145.706 225.582 146.323C225.214 146.939 224.757 147.464 224.21 147.896C223.663 148.324 223.049 148.65 222.368 148.873C221.692 149.097 220.968 149.209 220.198 149.209C218.895 149.209 217.737 148.891 216.723 148.254C215.708 147.618 214.91 146.713 214.329 145.54C213.747 144.366 213.456 142.974 213.456 141.364C213.456 139.753 213.747 138.361 214.329 137.188C214.91 136.014 215.708 135.109 216.723 134.473C217.737 133.837 218.895 133.518 220.198 133.518C220.968 133.518 221.692 133.63 222.368 133.854C223.049 134.078 223.663 134.406 224.21 134.838C224.757 135.266 225.214 135.788 225.582 136.404C225.95 137.016 226.203 137.714 226.343 138.5ZM233.956 149.239C232.922 149.239 232.014 148.993 231.234 148.5C230.458 148.008 229.852 147.32 229.414 146.435C228.982 145.55 228.766 144.516 228.766 143.332C228.766 142.139 228.982 141.098 229.414 140.208C229.852 139.318 230.458 138.627 231.234 138.135C232.014 137.642 232.922 137.396 233.956 137.396C234.99 137.396 235.895 137.642 236.67 138.135C237.451 138.627 238.057 139.318 238.49 140.208C238.927 141.098 239.146 142.139 239.146 143.332C239.146 144.516 238.927 145.55 238.49 146.435C238.057 147.32 237.451 148.008 236.67 148.5C235.895 148.993 234.99 149.239 233.956 149.239ZM233.956 147.658C234.741 147.658 235.388 147.456 235.895 147.054C236.402 146.651 236.777 146.121 237.021 145.465C237.264 144.809 237.386 144.098 237.386 143.332C237.386 142.567 237.264 141.853 237.021 141.192C236.777 140.531 236.402 139.996 235.895 139.589C235.388 139.181 234.741 138.977 233.956 138.977C233.17 138.977 232.524 139.181 232.017 139.589C231.51 139.996 231.135 140.531 230.891 141.192C230.647 141.853 230.525 142.567 230.525 143.332C230.525 144.098 230.647 144.809 230.891 145.465C231.135 146.121 231.51 146.651 232.017 147.054C232.524 147.456 233.17 147.658 233.956 147.658ZM243.803 142.109V149H242.043V137.545H243.743V139.335H243.892C244.161 138.754 244.568 138.286 245.115 137.933C245.662 137.575 246.368 137.396 247.233 137.396C248.009 137.396 248.687 137.555 249.269 137.874C249.851 138.187 250.303 138.664 250.626 139.305C250.949 139.942 251.111 140.747 251.111 141.722V149H249.351V141.841C249.351 140.941 249.117 140.24 248.65 139.738C248.183 139.231 247.541 138.977 246.726 138.977C246.164 138.977 245.662 139.099 245.22 139.343C244.782 139.586 244.437 139.942 244.183 140.409C243.929 140.876 243.803 141.443 243.803 142.109ZM259.518 137.545V139.037H253.582V137.545H259.518ZM255.312 134.801H257.072V145.719C257.072 146.216 257.145 146.589 257.289 146.837C257.438 147.081 257.627 147.245 257.855 147.33C258.089 147.409 258.335 147.449 258.594 147.449C258.788 147.449 258.947 147.439 259.071 147.419C259.195 147.394 259.295 147.374 259.369 147.359L259.727 148.94C259.608 148.985 259.441 149.03 259.228 149.075C259.014 149.124 258.743 149.149 258.415 149.149C257.918 149.149 257.43 149.042 256.953 148.828C256.481 148.615 256.088 148.289 255.775 147.852C255.467 147.414 255.312 146.862 255.312 146.196V134.801ZM267.055 149.239C265.952 149.239 265 148.995 264.199 148.508C263.404 148.016 262.79 147.33 262.357 146.45C261.93 145.565 261.716 144.536 261.716 143.362C261.716 142.189 261.93 141.155 262.357 140.26C262.79 139.36 263.391 138.659 264.162 138.157C264.937 137.65 265.842 137.396 266.876 137.396C267.473 137.396 268.062 137.496 268.644 137.695C269.225 137.893 269.755 138.217 270.232 138.664C270.709 139.107 271.09 139.693 271.373 140.424C271.657 141.155 271.798 142.055 271.798 143.124V143.869H262.969V142.348H270.008C270.008 141.702 269.879 141.125 269.621 140.618C269.367 140.111 269.004 139.711 268.532 139.417C268.065 139.124 267.513 138.977 266.876 138.977C266.175 138.977 265.569 139.151 265.057 139.499C264.55 139.842 264.159 140.29 263.886 140.842C263.613 141.393 263.476 141.985 263.476 142.616V143.631C263.476 144.496 263.625 145.229 263.923 145.831C264.227 146.427 264.647 146.882 265.184 147.195C265.72 147.504 266.344 147.658 267.055 147.658C267.518 147.658 267.935 147.593 268.308 147.464C268.686 147.33 269.012 147.131 269.285 146.867C269.559 146.599 269.77 146.266 269.919 145.868L271.619 146.345C271.44 146.922 271.14 147.429 270.717 147.866C270.294 148.299 269.772 148.637 269.151 148.881C268.529 149.119 267.831 149.239 267.055 149.239ZM276.445 142.109V149H274.685V137.545H276.386V139.335H276.535C276.803 138.754 277.211 138.286 277.758 137.933C278.305 137.575 279.011 137.396 279.876 137.396C280.651 137.396 281.33 137.555 281.912 137.874C282.493 138.187 282.946 138.664 283.269 139.305C283.592 139.942 283.754 140.747 283.754 141.722V149H281.994V141.841C281.994 140.941 281.76 140.24 281.293 139.738C280.825 139.231 280.184 138.977 279.369 138.977C278.807 138.977 278.305 139.099 277.862 139.343C277.425 139.586 277.079 139.942 276.826 140.409C276.572 140.876 276.445 141.443 276.445 142.109ZM292.161 137.545V139.037H286.225V137.545H292.161ZM287.955 134.801H289.715V145.719C289.715 146.216 289.787 146.589 289.931 146.837C290.081 147.081 290.269 147.245 290.498 147.33C290.732 147.409 290.978 147.449 291.236 147.449C291.43 147.449 291.589 147.439 291.714 147.419C291.838 147.394 291.937 147.374 292.012 147.359L292.37 148.94C292.251 148.985 292.084 149.03 291.87 149.075C291.657 149.124 291.386 149.149 291.057 149.149C290.56 149.149 290.073 149.042 289.596 148.828C289.124 148.615 288.731 148.289 288.418 147.852C288.109 147.414 287.955 146.862 287.955 146.196V134.801ZM313.663 138.5H311.814C311.704 137.968 311.513 137.501 311.24 137.098C310.971 136.695 310.643 136.357 310.255 136.084C309.872 135.805 309.447 135.597 308.98 135.457C308.513 135.318 308.025 135.249 307.518 135.249C306.594 135.249 305.756 135.482 305.005 135.95C304.259 136.417 303.665 137.105 303.223 138.015C302.785 138.925 302.567 140.041 302.567 141.364C302.567 142.686 302.785 143.802 303.223 144.712C303.665 145.622 304.259 146.31 305.005 146.778C305.756 147.245 306.594 147.479 307.518 147.479C308.025 147.479 308.513 147.409 308.98 147.27C309.447 147.131 309.872 146.924 310.255 146.651C310.643 146.373 310.971 146.032 311.24 145.629C311.513 145.222 311.704 144.754 311.814 144.227H313.663C313.524 145.008 313.27 145.706 312.903 146.323C312.535 146.939 312.077 147.464 311.53 147.896C310.984 148.324 310.37 148.65 309.688 148.873C309.012 149.097 308.289 149.209 307.518 149.209C306.216 149.209 305.057 148.891 304.043 148.254C303.029 147.618 302.231 146.713 301.649 145.54C301.068 144.366 300.777 142.974 300.777 141.364C300.777 139.753 301.068 138.361 301.649 137.188C302.231 136.014 303.029 135.109 304.043 134.473C305.057 133.837 306.216 133.518 307.518 133.518C308.289 133.518 309.012 133.63 309.688 133.854C310.37 134.078 310.984 134.406 311.53 134.838C312.077 135.266 312.535 135.788 312.903 136.404C313.27 137.016 313.524 137.714 313.663 138.5ZM321.277 149.239C320.242 149.239 319.335 148.993 318.555 148.5C317.779 148.008 317.172 147.32 316.735 146.435C316.302 145.55 316.086 144.516 316.086 143.332C316.086 142.139 316.302 141.098 316.735 140.208C317.172 139.318 317.779 138.627 318.555 138.135C319.335 137.642 320.242 137.396 321.277 137.396C322.311 137.396 323.215 137.642 323.991 138.135C324.772 138.627 325.378 139.318 325.811 140.208C326.248 141.098 326.467 142.139 326.467 143.332C326.467 144.516 326.248 145.55 325.811 146.435C325.378 147.32 324.772 148.008 323.991 148.5C323.215 148.993 322.311 149.239 321.277 149.239ZM321.277 147.658C322.062 147.658 322.708 147.456 323.215 147.054C323.723 146.651 324.098 146.121 324.341 145.465C324.585 144.809 324.707 144.098 324.707 143.332C324.707 142.567 324.585 141.853 324.341 141.192C324.098 140.531 323.723 139.996 323.215 139.589C322.708 139.181 322.062 138.977 321.277 138.977C320.491 138.977 319.845 139.181 319.338 139.589C318.83 139.996 318.455 140.531 318.212 141.192C317.968 141.853 317.846 142.567 317.846 143.332C317.846 144.098 317.968 144.809 318.212 145.465C318.455 146.121 318.83 146.651 319.338 147.054C319.845 147.456 320.491 147.658 321.277 147.658ZM331.123 133.727V149H329.363V133.727H331.123ZM336.317 133.727V149H334.557V133.727H336.317ZM343.121 149.268C342.395 149.268 341.736 149.132 341.145 148.858C340.553 148.58 340.083 148.18 339.735 147.658C339.387 147.131 339.213 146.494 339.213 145.749C339.213 145.092 339.342 144.56 339.601 144.153C339.86 143.74 340.205 143.417 340.638 143.183C341.07 142.95 341.547 142.776 342.069 142.661C342.596 142.542 343.126 142.447 343.658 142.378C344.354 142.288 344.918 142.221 345.351 142.176C345.788 142.127 346.106 142.045 346.305 141.93C346.509 141.816 346.611 141.617 346.611 141.334V141.274C346.611 140.538 346.41 139.967 346.007 139.559C345.609 139.151 345.005 138.947 344.195 138.947C343.355 138.947 342.696 139.131 342.219 139.499C341.741 139.867 341.406 140.26 341.212 140.678L339.541 140.081C339.84 139.385 340.237 138.843 340.735 138.455C341.237 138.062 341.784 137.789 342.375 137.635C342.972 137.476 343.558 137.396 344.135 137.396C344.503 137.396 344.926 137.441 345.403 137.531C345.885 137.615 346.35 137.792 346.797 138.06C347.25 138.328 347.625 138.734 347.923 139.276C348.222 139.817 348.371 140.543 348.371 141.453V149H346.611V147.449H346.521C346.402 147.697 346.203 147.963 345.925 148.247C345.646 148.53 345.276 148.771 344.814 148.97C344.351 149.169 343.787 149.268 343.121 149.268ZM343.389 147.688C344.085 147.688 344.672 147.551 345.149 147.277C345.632 147.004 345.994 146.651 346.238 146.218C346.487 145.786 346.611 145.331 346.611 144.854V143.243C346.536 143.332 346.372 143.414 346.119 143.489C345.87 143.559 345.582 143.621 345.254 143.675C344.931 143.725 344.615 143.77 344.307 143.81C344.003 143.844 343.757 143.874 343.568 143.899C343.111 143.959 342.683 144.056 342.286 144.19C341.893 144.319 341.575 144.516 341.331 144.779C341.092 145.038 340.973 145.391 340.973 145.838C340.973 146.45 341.199 146.912 341.652 147.225C342.109 147.533 342.688 147.688 343.389 147.688ZM352.032 149V133.727H353.792V139.365H353.941C354.07 139.166 354.249 138.913 354.478 138.604C354.712 138.291 355.045 138.013 355.477 137.769C355.915 137.521 356.506 137.396 357.252 137.396C358.216 137.396 359.067 137.637 359.802 138.12C360.538 138.602 361.112 139.286 361.525 140.17C361.938 141.055 362.144 142.099 362.144 143.303C362.144 144.516 361.938 145.567 361.525 146.457C361.112 147.342 360.541 148.028 359.81 148.515C359.079 148.998 358.236 149.239 357.282 149.239C356.546 149.239 355.957 149.117 355.514 148.873C355.072 148.625 354.731 148.344 354.493 148.031C354.254 147.712 354.07 147.449 353.941 147.24H353.732V149H352.032ZM353.762 143.273C353.762 144.138 353.889 144.901 354.142 145.562C354.396 146.218 354.766 146.733 355.253 147.106C355.741 147.474 356.337 147.658 357.043 147.658C357.779 147.658 358.393 147.464 358.885 147.076C359.382 146.683 359.755 146.156 360.004 145.495C360.257 144.829 360.384 144.088 360.384 143.273C360.384 142.467 360.26 141.741 360.011 141.095C359.768 140.444 359.397 139.929 358.9 139.551C358.408 139.169 357.789 138.977 357.043 138.977C356.327 138.977 355.726 139.159 355.238 139.522C354.751 139.88 354.383 140.382 354.135 141.028C353.886 141.669 353.762 142.418 353.762 143.273ZM369.7 149.239C368.665 149.239 367.758 148.993 366.978 148.5C366.202 148.008 365.596 147.32 365.158 146.435C364.725 145.55 364.509 144.516 364.509 143.332C364.509 142.139 364.725 141.098 365.158 140.208C365.596 139.318 366.202 138.627 366.978 138.135C367.758 137.642 368.665 137.396 369.7 137.396C370.734 137.396 371.638 137.642 372.414 138.135C373.195 138.627 373.801 139.318 374.234 140.208C374.671 141.098 374.89 142.139 374.89 143.332C374.89 144.516 374.671 145.55 374.234 146.435C373.801 147.32 373.195 148.008 372.414 148.5C371.638 148.993 370.734 149.239 369.7 149.239ZM369.7 147.658C370.485 147.658 371.131 147.456 371.638 147.054C372.146 146.651 372.521 146.121 372.765 145.465C373.008 144.809 373.13 144.098 373.13 143.332C373.13 142.567 373.008 141.853 372.765 141.192C372.521 140.531 372.146 139.996 371.638 139.589C371.131 139.181 370.485 138.977 369.7 138.977C368.914 138.977 368.268 139.181 367.761 139.589C367.254 139.996 366.878 140.531 366.635 141.192C366.391 141.853 366.269 142.567 366.269 143.332C366.269 144.098 366.391 144.809 366.635 145.465C366.878 146.121 367.254 146.651 367.761 147.054C368.268 147.456 368.914 147.658 369.7 147.658ZM377.786 149V137.545H379.487V139.276H379.606C379.815 138.709 380.193 138.249 380.74 137.896C381.286 137.543 381.903 137.366 382.589 137.366C382.718 137.366 382.88 137.369 383.074 137.374C383.268 137.379 383.414 137.386 383.514 137.396V139.186C383.454 139.171 383.317 139.149 383.104 139.119C382.895 139.084 382.673 139.067 382.44 139.067C381.883 139.067 381.386 139.184 380.948 139.417C380.516 139.646 380.173 139.964 379.919 140.372C379.671 140.775 379.546 141.234 379.546 141.751V149H377.786ZM389.181 149.268C388.455 149.268 387.796 149.132 387.204 148.858C386.613 148.58 386.143 148.18 385.795 147.658C385.447 147.131 385.273 146.494 385.273 145.749C385.273 145.092 385.402 144.56 385.661 144.153C385.919 143.74 386.265 143.417 386.697 143.183C387.13 142.95 387.607 142.776 388.129 142.661C388.656 142.542 389.186 142.447 389.718 142.378C390.414 142.288 390.978 142.221 391.41 142.176C391.848 142.127 392.166 142.045 392.365 141.93C392.569 141.816 392.671 141.617 392.671 141.334V141.274C392.671 140.538 392.469 139.967 392.067 139.559C391.669 139.151 391.065 138.947 390.254 138.947C389.414 138.947 388.756 139.131 388.278 139.499C387.801 139.867 387.465 140.26 387.272 140.678L385.601 140.081C385.899 139.385 386.297 138.843 386.794 138.455C387.296 138.062 387.843 137.789 388.435 137.635C389.031 137.476 389.618 137.396 390.195 137.396C390.563 137.396 390.985 137.441 391.463 137.531C391.945 137.615 392.41 137.792 392.857 138.06C393.31 138.328 393.685 138.734 393.983 139.276C394.281 139.817 394.431 140.543 394.431 141.453V149H392.671V147.449H392.581C392.462 147.697 392.263 147.963 391.985 148.247C391.706 148.53 391.336 148.771 390.873 148.97C390.411 149.169 389.847 149.268 389.181 149.268ZM389.449 147.688C390.145 147.688 390.732 147.551 391.209 147.277C391.691 147.004 392.054 146.651 392.298 146.218C392.546 145.786 392.671 145.331 392.671 144.854V143.243C392.596 143.332 392.432 143.414 392.179 143.489C391.93 143.559 391.642 143.621 391.313 143.675C390.99 143.725 390.675 143.77 390.366 143.81C390.063 143.844 389.817 143.874 389.628 143.899C389.171 143.959 388.743 144.056 388.345 144.19C387.953 144.319 387.634 144.516 387.391 144.779C387.152 145.038 387.033 145.391 387.033 145.838C387.033 146.45 387.259 146.912 387.712 147.225C388.169 147.533 388.748 147.688 389.449 147.688ZM402.834 137.545V139.037H396.898V137.545H402.834ZM398.628 134.801H400.388V145.719C400.388 146.216 400.461 146.589 400.605 146.837C400.754 147.081 400.943 147.245 401.171 147.33C401.405 147.409 401.651 147.449 401.91 147.449C402.104 147.449 402.263 147.439 402.387 147.419C402.511 147.394 402.611 147.374 402.685 147.359L403.043 148.94C402.924 148.985 402.757 149.03 402.544 149.075C402.33 149.124 402.059 149.149 401.731 149.149C401.234 149.149 400.746 149.042 400.269 148.828C399.797 148.615 399.404 148.289 399.091 147.852C398.783 147.414 398.628 146.862 398.628 146.196V134.801ZM405.692 149V137.545H407.452V149H405.692ZM406.587 135.636C406.244 135.636 405.948 135.52 405.699 135.286C405.456 135.052 405.334 134.771 405.334 134.443C405.334 134.115 405.456 133.834 405.699 133.6C405.948 133.367 406.244 133.25 406.587 133.25C406.93 133.25 407.223 133.367 407.467 133.6C407.715 133.834 407.84 134.115 407.84 134.443C407.84 134.771 407.715 135.052 407.467 135.286C407.223 135.52 406.93 135.636 406.587 135.636ZM415.539 149.239C414.505 149.239 413.597 148.993 412.817 148.5C412.041 148.008 411.435 147.32 410.997 146.435C410.565 145.55 410.348 144.516 410.348 143.332C410.348 142.139 410.565 141.098 410.997 140.208C411.435 139.318 412.041 138.627 412.817 138.135C413.597 137.642 414.505 137.396 415.539 137.396C416.573 137.396 417.478 137.642 418.253 138.135C419.034 138.627 419.64 139.318 420.073 140.208C420.51 141.098 420.729 142.139 420.729 143.332C420.729 144.516 420.51 145.55 420.073 146.435C419.64 147.32 419.034 148.008 418.253 148.5C417.478 148.993 416.573 149.239 415.539 149.239ZM415.539 147.658C416.324 147.658 416.97 147.456 417.478 147.054C417.985 146.651 418.36 146.121 418.604 145.465C418.847 144.809 418.969 144.098 418.969 143.332C418.969 142.567 418.847 141.853 418.604 141.192C418.36 140.531 417.985 139.996 417.478 139.589C416.97 139.181 416.324 138.977 415.539 138.977C414.753 138.977 414.107 139.181 413.6 139.589C413.093 139.996 412.717 140.531 412.474 141.192C412.23 141.853 412.108 142.567 412.108 143.332C412.108 144.098 412.23 144.809 412.474 145.465C412.717 146.121 413.093 146.651 413.6 147.054C414.107 147.456 414.753 147.658 415.539 147.658ZM425.385 142.109V149H423.625V137.545H425.326V139.335H425.475C425.743 138.754 426.151 138.286 426.698 137.933C427.245 137.575 427.951 137.396 428.816 137.396C429.591 137.396 430.27 137.555 430.852 137.874C431.433 138.187 431.886 138.664 432.209 139.305C432.532 139.942 432.694 140.747 432.694 141.722V149H430.934V141.841C430.934 140.941 430.7 140.24 430.233 139.738C429.765 139.231 429.124 138.977 428.309 138.977C427.747 138.977 427.245 139.099 426.802 139.343C426.365 139.586 426.019 139.942 425.766 140.409C425.512 140.876 425.385 141.443 425.385 142.109Z" fill="white"/>
<path d="M94.293 237.773C94.7765 236.694 95.8484 236 97.0304 236H393.47C394.652 236 395.723 236.694 396.207 237.773L404.95 257.273C405.3 258.053 405.3 258.947 404.95 259.727L396.207 279.227C395.723 280.306 394.652 281 393.47 281H97.0304C95.8484 281 94.7765 280.306 94.293 279.227L85.5503 259.727C85.2002 258.947 85.2002 258.053 85.5503 257.273L94.293 237.773Z" fill="black"/>
<path d="M129.452 255.545C129.362 254.79 128.999 254.203 128.363 253.786C127.727 253.368 126.946 253.159 126.021 253.159C125.345 253.159 124.754 253.268 124.246 253.487C123.744 253.706 123.352 254.007 123.068 254.39C122.79 254.772 122.651 255.207 122.651 255.695C122.651 256.102 122.748 256.453 122.941 256.746C123.14 257.034 123.394 257.276 123.702 257.469C124.01 257.658 124.333 257.815 124.672 257.939C125.01 258.059 125.32 258.156 125.604 258.23L127.155 258.648C127.553 258.752 127.995 258.896 128.482 259.08C128.974 259.264 129.444 259.515 129.892 259.833C130.344 260.147 130.717 260.549 131.01 261.042C131.304 261.534 131.45 262.138 131.45 262.854C131.45 263.679 131.234 264.425 130.801 265.091C130.374 265.757 129.748 266.287 128.922 266.679C128.102 267.072 127.105 267.268 125.932 267.268C124.838 267.268 123.891 267.092 123.091 266.739C122.295 266.386 121.669 265.894 121.211 265.262C120.759 264.631 120.503 263.898 120.443 263.062H122.352C122.402 263.639 122.596 264.116 122.934 264.494C123.277 264.867 123.71 265.146 124.232 265.33C124.759 265.509 125.325 265.598 125.932 265.598C126.638 265.598 127.272 265.484 127.833 265.255C128.395 265.021 128.84 264.698 129.168 264.286C129.496 263.868 129.661 263.381 129.661 262.824C129.661 262.317 129.519 261.904 129.235 261.586C128.952 261.268 128.579 261.009 128.117 260.81C127.654 260.612 127.155 260.437 126.618 260.288L124.739 259.751C123.545 259.408 122.601 258.919 121.905 258.282C121.209 257.646 120.861 256.813 120.861 255.784C120.861 254.929 121.092 254.183 121.554 253.547C122.022 252.906 122.648 252.408 123.434 252.055C124.224 251.697 125.107 251.518 126.081 251.518C127.065 251.518 127.94 251.695 128.706 252.048C129.472 252.396 130.078 252.873 130.526 253.48C130.978 254.086 131.217 254.775 131.241 255.545H129.452ZM139.265 267.239C138.161 267.239 137.209 266.995 136.409 266.508C135.613 266.016 134.999 265.33 134.567 264.45C134.139 263.565 133.925 262.536 133.925 261.362C133.925 260.189 134.139 259.155 134.567 258.26C134.999 257.36 135.601 256.659 136.371 256.157C137.147 255.65 138.052 255.396 139.086 255.396C139.683 255.396 140.272 255.496 140.853 255.695C141.435 255.893 141.965 256.217 142.442 256.664C142.919 257.107 143.299 257.693 143.583 258.424C143.866 259.155 144.008 260.055 144.008 261.124V261.869H135.178V260.348H142.218C142.218 259.702 142.089 259.125 141.83 258.618C141.577 258.111 141.214 257.711 140.742 257.417C140.274 257.124 139.722 256.977 139.086 256.977C138.385 256.977 137.778 257.151 137.266 257.499C136.759 257.842 136.369 258.29 136.096 258.842C135.822 259.393 135.685 259.985 135.685 260.616V261.631C135.685 262.496 135.835 263.229 136.133 263.831C136.436 264.427 136.856 264.882 137.393 265.195C137.93 265.504 138.554 265.658 139.265 265.658C139.727 265.658 140.145 265.593 140.518 265.464C140.896 265.33 141.221 265.131 141.495 264.867C141.768 264.599 141.979 264.266 142.129 263.868L143.829 264.345C143.65 264.922 143.349 265.429 142.927 265.866C142.504 266.299 141.982 266.637 141.36 266.881C140.739 267.119 140.041 267.239 139.265 267.239ZM148.655 260.109V267H146.895V255.545H148.595V257.335H148.744C149.013 256.754 149.421 256.286 149.967 255.933C150.514 255.575 151.22 255.396 152.085 255.396C152.861 255.396 153.54 255.555 154.121 255.874C154.703 256.187 155.155 256.664 155.479 257.305C155.802 257.942 155.963 258.747 155.963 259.722V267H154.203V259.841C154.203 258.941 153.97 258.24 153.502 257.738C153.035 257.231 152.394 256.977 151.578 256.977C151.017 256.977 150.514 257.099 150.072 257.343C149.634 257.586 149.289 257.942 149.035 258.409C148.782 258.876 148.655 259.443 148.655 260.109ZM167.503 258.111L165.922 258.558C165.822 258.295 165.676 258.039 165.482 257.79C165.293 257.537 165.034 257.328 164.706 257.164C164.378 257 163.958 256.918 163.446 256.918C162.745 256.918 162.161 257.079 161.694 257.402C161.231 257.721 161 258.126 161 258.618C161 259.055 161.159 259.401 161.477 259.654C161.795 259.908 162.293 260.119 162.969 260.288L164.669 260.706C165.693 260.955 166.456 261.335 166.958 261.847C167.461 262.354 167.712 263.008 167.712 263.808C167.712 264.464 167.523 265.051 167.145 265.568C166.772 266.085 166.25 266.493 165.579 266.791C164.908 267.089 164.127 267.239 163.237 267.239C162.069 267.239 161.102 266.985 160.336 266.478C159.571 265.971 159.086 265.23 158.882 264.256L160.553 263.838C160.712 264.455 161.012 264.917 161.455 265.225C161.902 265.533 162.487 265.688 163.207 265.688C164.028 265.688 164.679 265.513 165.161 265.165C165.648 264.812 165.892 264.39 165.892 263.898C165.892 263.5 165.753 263.167 165.474 262.898C165.196 262.625 164.768 262.421 164.192 262.287L162.283 261.839C161.234 261.591 160.463 261.206 159.971 260.684C159.484 260.157 159.24 259.498 159.24 258.707C159.24 258.061 159.422 257.489 159.784 256.992C160.152 256.495 160.652 256.105 161.283 255.821C161.92 255.538 162.641 255.396 163.446 255.396C164.58 255.396 165.469 255.645 166.116 256.142C166.767 256.639 167.229 257.295 167.503 258.111ZM170.571 267V255.545H172.331V267H170.571ZM171.466 253.636C171.123 253.636 170.827 253.52 170.578 253.286C170.335 253.052 170.213 252.771 170.213 252.443C170.213 252.115 170.335 251.834 170.578 251.6C170.827 251.367 171.123 251.25 171.466 251.25C171.809 251.25 172.102 251.367 172.346 251.6C172.594 251.834 172.719 252.115 172.719 252.443C172.719 252.771 172.594 253.052 172.346 253.286C172.102 253.52 171.809 253.636 171.466 253.636ZM180.746 255.545V257.037H174.81V255.545H180.746ZM176.54 252.801H178.3V263.719C178.3 264.216 178.372 264.589 178.516 264.837C178.665 265.081 178.854 265.245 179.083 265.33C179.317 265.409 179.563 265.449 179.821 265.449C180.015 265.449 180.174 265.439 180.298 265.419C180.423 265.394 180.522 265.374 180.597 265.359L180.955 266.94C180.835 266.985 180.669 267.03 180.455 267.075C180.241 267.124 179.97 267.149 179.642 267.149C179.145 267.149 178.658 267.042 178.181 266.828C177.708 266.615 177.315 266.289 177.002 265.852C176.694 265.414 176.54 264.862 176.54 264.196V252.801ZM183.603 267V255.545H185.363V267H183.603ZM184.498 253.636C184.155 253.636 183.859 253.52 183.611 253.286C183.367 253.052 183.245 252.771 183.245 252.443C183.245 252.115 183.367 251.834 183.611 251.6C183.859 251.367 184.155 251.25 184.498 251.25C184.841 251.25 185.134 251.367 185.378 251.6C185.627 251.834 185.751 252.115 185.751 252.443C185.751 252.771 185.627 253.052 185.378 253.286C185.134 253.52 184.841 253.636 184.498 253.636ZM198.163 255.545L193.927 267H192.138L187.902 255.545H189.811L192.973 264.673H193.092L196.254 255.545H198.163ZM205.088 267.239C203.985 267.239 203.033 266.995 202.232 266.508C201.437 266.016 200.823 265.33 200.39 264.45C199.963 263.565 199.749 262.536 199.749 261.362C199.749 260.189 199.963 259.155 200.39 258.26C200.823 257.36 201.424 256.659 202.195 256.157C202.971 255.65 203.875 255.396 204.909 255.396C205.506 255.396 206.095 255.496 206.677 255.695C207.259 255.893 207.788 256.217 208.265 256.664C208.743 257.107 209.123 257.693 209.406 258.424C209.69 259.155 209.831 260.055 209.831 261.124V261.869H201.002V260.348H208.042C208.042 259.702 207.912 259.125 207.654 258.618C207.4 258.111 207.037 257.711 206.565 257.417C206.098 257.124 205.546 256.977 204.909 256.977C204.208 256.977 203.602 257.151 203.09 257.499C202.583 257.842 202.193 258.29 201.919 258.842C201.646 259.393 201.509 259.985 201.509 260.616V261.631C201.509 262.496 201.658 263.229 201.956 263.831C202.26 264.427 202.68 264.882 203.217 265.195C203.754 265.504 204.378 265.658 205.088 265.658C205.551 265.658 205.968 265.593 206.341 265.464C206.719 265.33 207.045 265.131 207.318 264.867C207.592 264.599 207.803 264.266 207.952 263.868L209.652 264.345C209.473 264.922 209.173 265.429 208.75 265.866C208.327 266.299 207.805 266.637 207.184 266.881C206.563 267.119 205.864 267.239 205.088 267.239ZM223.787 267H219.073V251.727H223.995C225.477 251.727 226.745 252.033 227.799 252.645C228.853 253.251 229.66 254.124 230.222 255.262C230.784 256.396 231.065 257.753 231.065 259.334C231.065 260.925 230.782 262.294 230.215 263.443C229.648 264.586 228.823 265.466 227.739 266.083C226.655 266.694 225.338 267 223.787 267ZM220.923 265.359H223.667C224.93 265.359 225.977 265.116 226.807 264.629C227.637 264.141 228.256 263.448 228.664 262.548C229.071 261.648 229.275 260.577 229.275 259.334C229.275 258.101 229.074 257.039 228.671 256.15C228.268 255.255 227.667 254.569 226.866 254.091C226.066 253.609 225.069 253.368 223.876 253.368H220.923V265.359ZM237.509 267.268C236.783 267.268 236.125 267.132 235.533 266.858C234.941 266.58 234.472 266.18 234.124 265.658C233.776 265.131 233.602 264.494 233.602 263.749C233.602 263.092 233.731 262.56 233.989 262.153C234.248 261.74 234.593 261.417 235.026 261.183C235.459 260.95 235.936 260.776 236.458 260.661C236.985 260.542 237.514 260.447 238.046 260.378C238.742 260.288 239.307 260.221 239.739 260.176C240.177 260.127 240.495 260.045 240.694 259.93C240.897 259.816 240.999 259.617 240.999 259.334V259.274C240.999 258.538 240.798 257.967 240.395 257.559C239.998 257.151 239.394 256.947 238.583 256.947C237.743 256.947 237.084 257.131 236.607 257.499C236.13 257.867 235.794 258.26 235.6 258.678L233.93 258.081C234.228 257.385 234.626 256.843 235.123 256.455C235.625 256.062 236.172 255.789 236.764 255.635C237.36 255.476 237.947 255.396 238.524 255.396C238.891 255.396 239.314 255.441 239.791 255.531C240.274 255.615 240.738 255.792 241.186 256.06C241.638 256.328 242.014 256.734 242.312 257.276C242.61 257.817 242.759 258.543 242.759 259.453V267H240.999V265.449H240.91C240.791 265.697 240.592 265.963 240.313 266.247C240.035 266.53 239.664 266.771 239.202 266.97C238.74 267.169 238.175 267.268 237.509 267.268ZM237.778 265.688C238.474 265.688 239.06 265.551 239.538 265.277C240.02 265.004 240.383 264.651 240.626 264.218C240.875 263.786 240.999 263.331 240.999 262.854V261.243C240.925 261.332 240.761 261.414 240.507 261.489C240.259 261.559 239.97 261.621 239.642 261.675C239.319 261.725 239.003 261.77 238.695 261.81C238.392 261.844 238.146 261.874 237.957 261.899C237.499 261.959 237.072 262.056 236.674 262.19C236.281 262.319 235.963 262.516 235.72 262.779C235.481 263.038 235.362 263.391 235.362 263.838C235.362 264.45 235.588 264.912 236.04 265.225C236.498 265.533 237.077 265.688 237.778 265.688ZM251.163 255.545V257.037H245.227V255.545H251.163ZM246.957 252.801H248.717V263.719C248.717 264.216 248.789 264.589 248.933 264.837C249.082 265.081 249.271 265.245 249.5 265.33C249.734 265.409 249.98 265.449 250.238 265.449C250.432 265.449 250.591 265.439 250.716 265.419C250.84 265.394 250.939 265.374 251.014 265.359L251.372 266.94C251.253 266.985 251.086 267.03 250.872 267.075C250.658 267.124 250.388 267.149 250.059 267.149C249.562 267.149 249.075 267.042 248.598 266.828C248.125 266.615 247.733 266.289 247.419 265.852C247.111 265.414 246.957 264.862 246.957 264.196V252.801ZM257.391 267.268C256.665 267.268 256.007 267.132 255.415 266.858C254.823 266.58 254.354 266.18 254.006 265.658C253.658 265.131 253.484 264.494 253.484 263.749C253.484 263.092 253.613 262.56 253.871 262.153C254.13 261.74 254.475 261.417 254.908 261.183C255.34 260.95 255.818 260.776 256.34 260.661C256.867 260.542 257.396 260.447 257.928 260.378C258.624 260.288 259.188 260.221 259.621 260.176C260.058 260.127 260.377 260.045 260.576 259.93C260.779 259.816 260.881 259.617 260.881 259.334V259.274C260.881 258.538 260.68 257.967 260.277 257.559C259.879 257.151 259.275 256.947 258.465 256.947C257.625 256.947 256.966 257.131 256.489 257.499C256.012 257.867 255.676 258.26 255.482 258.678L253.812 258.081C254.11 257.385 254.508 256.843 255.005 256.455C255.507 256.062 256.054 255.789 256.645 255.635C257.242 255.476 257.829 255.396 258.405 255.396C258.773 255.396 259.196 255.441 259.673 255.531C260.155 255.615 260.62 255.792 261.068 256.06C261.52 256.328 261.895 256.734 262.194 257.276C262.492 257.817 262.641 258.543 262.641 259.453V267H260.881V265.449H260.792C260.672 265.697 260.474 265.963 260.195 266.247C259.917 266.53 259.546 266.771 259.084 266.97C258.622 267.169 258.057 267.268 257.391 267.268ZM257.66 265.688C258.356 265.688 258.942 265.551 259.42 265.277C259.902 265.004 260.265 264.651 260.508 264.218C260.757 263.786 260.881 263.331 260.881 262.854V261.243C260.807 261.332 260.643 261.414 260.389 261.489C260.141 261.559 259.852 261.621 259.524 261.675C259.201 261.725 258.885 261.77 258.577 261.81C258.274 261.844 258.028 261.874 257.839 261.899C257.381 261.959 256.954 262.056 256.556 262.19C256.163 262.319 255.845 262.516 255.601 262.779C255.363 263.038 255.243 263.391 255.243 263.838C255.243 264.45 255.47 264.912 255.922 265.225C256.379 265.533 256.959 265.688 257.66 265.688ZM277.131 267H272.418V251.727H277.34C278.822 251.727 280.09 252.033 281.144 252.645C282.197 253.251 283.005 254.124 283.567 255.262C284.129 256.396 284.41 257.753 284.41 259.334C284.41 260.925 284.126 262.294 283.56 263.443C282.993 264.586 282.168 265.466 281.084 266.083C280 266.694 278.683 267 277.131 267ZM274.268 265.359H277.012C278.275 265.359 279.321 265.116 280.152 264.629C280.982 264.141 281.601 263.448 282.009 262.548C282.416 261.648 282.62 260.577 282.62 259.334C282.62 258.101 282.419 257.039 282.016 256.15C281.613 255.255 281.012 254.569 280.211 254.091C279.411 253.609 278.414 253.368 277.221 253.368H274.268V265.359ZM287.483 267V255.545H289.243V267H287.483ZM288.378 253.636C288.035 253.636 287.74 253.52 287.491 253.286C287.247 253.052 287.126 252.771 287.126 252.443C287.126 252.115 287.247 251.834 287.491 251.6C287.74 251.367 288.035 251.25 288.378 251.25C288.721 251.25 289.015 251.367 289.258 251.6C289.507 251.834 289.631 252.115 289.631 252.443C289.631 252.771 289.507 253.052 289.258 253.286C289.015 253.52 288.721 253.636 288.378 253.636ZM300.791 258.111L299.21 258.558C299.11 258.295 298.963 258.039 298.77 257.79C298.581 257.537 298.322 257.328 297.994 257.164C297.666 257 297.246 256.918 296.734 256.918C296.033 256.918 295.449 257.079 294.981 257.402C294.519 257.721 294.288 258.126 294.288 258.618C294.288 259.055 294.447 259.401 294.765 259.654C295.083 259.908 295.58 260.119 296.256 260.288L297.957 260.706C298.981 260.955 299.744 261.335 300.246 261.847C300.748 262.354 300.999 263.008 300.999 263.808C300.999 264.464 300.81 265.051 300.433 265.568C300.06 266.085 299.538 266.493 298.867 266.791C298.195 267.089 297.415 267.239 296.525 267.239C295.357 267.239 294.39 266.985 293.624 266.478C292.858 265.971 292.374 265.23 292.17 264.256L293.84 263.838C293.999 264.455 294.3 264.917 294.743 265.225C295.19 265.533 295.774 265.688 296.495 265.688C297.315 265.688 297.967 265.513 298.449 265.165C298.936 264.812 299.18 264.39 299.18 263.898C299.18 263.5 299.041 263.167 298.762 262.898C298.484 262.625 298.056 262.421 297.479 262.287L295.57 261.839C294.521 261.591 293.751 261.206 293.259 260.684C292.771 260.157 292.528 259.498 292.528 258.707C292.528 258.061 292.709 257.489 293.072 256.992C293.44 256.495 293.94 256.105 294.571 255.821C295.207 255.538 295.928 255.396 296.734 255.396C297.867 255.396 298.757 255.645 299.403 256.142C300.055 256.639 300.517 257.295 300.791 258.111ZM308.512 267.239C307.438 267.239 306.513 266.985 305.738 266.478C304.962 265.971 304.366 265.272 303.948 264.382C303.53 263.493 303.322 262.476 303.322 261.332C303.322 260.169 303.535 259.142 303.963 258.252C304.395 257.358 304.997 256.659 305.768 256.157C306.543 255.65 307.448 255.396 308.482 255.396C309.288 255.396 310.013 255.545 310.66 255.844C311.306 256.142 311.835 256.56 312.248 257.097C312.661 257.634 312.917 258.26 313.016 258.976H311.256C311.122 258.454 310.824 257.991 310.361 257.589C309.904 257.181 309.288 256.977 308.512 256.977C307.826 256.977 307.224 257.156 306.707 257.514C306.195 257.867 305.795 258.367 305.507 259.013C305.223 259.654 305.082 260.408 305.082 261.273C305.082 262.158 305.221 262.928 305.499 263.585C305.783 264.241 306.18 264.75 306.692 265.113C307.209 265.476 307.816 265.658 308.512 265.658C308.969 265.658 309.384 265.578 309.757 265.419C310.13 265.26 310.446 265.031 310.704 264.733C310.963 264.435 311.147 264.077 311.256 263.659H313.016C312.917 264.335 312.671 264.944 312.278 265.486C311.89 266.023 311.376 266.451 310.734 266.769C310.098 267.082 309.357 267.239 308.512 267.239ZM320.452 267.239C319.418 267.239 318.511 266.993 317.731 266.5C316.955 266.008 316.348 265.32 315.911 264.435C315.478 263.55 315.262 262.516 315.262 261.332C315.262 260.139 315.478 259.098 315.911 258.208C316.348 257.318 316.955 256.627 317.731 256.135C318.511 255.642 319.418 255.396 320.452 255.396C321.487 255.396 322.391 255.642 323.167 256.135C323.947 256.627 324.554 257.318 324.987 258.208C325.424 259.098 325.643 260.139 325.643 261.332C325.643 262.516 325.424 263.55 324.987 264.435C324.554 265.32 323.947 266.008 323.167 266.5C322.391 266.993 321.487 267.239 320.452 267.239ZM320.452 265.658C321.238 265.658 321.884 265.456 322.391 265.054C322.898 264.651 323.274 264.121 323.517 263.465C323.761 262.809 323.883 262.098 323.883 261.332C323.883 260.567 323.761 259.853 323.517 259.192C323.274 258.531 322.898 257.996 322.391 257.589C321.884 257.181 321.238 256.977 320.452 256.977C319.667 256.977 319.021 257.181 318.514 257.589C318.006 257.996 317.631 258.531 317.387 259.192C317.144 259.853 317.022 260.567 317.022 261.332C317.022 262.098 317.144 262.809 317.387 263.465C317.631 264.121 318.006 264.651 318.514 265.054C319.021 265.456 319.667 265.658 320.452 265.658ZM337.496 255.545L333.26 267H331.47L327.234 255.545H329.143L332.305 264.673H332.425L335.587 255.545H337.496ZM344.421 267.239C343.317 267.239 342.365 266.995 341.565 266.508C340.769 266.016 340.155 265.33 339.723 264.45C339.295 263.565 339.082 262.536 339.082 261.362C339.082 260.189 339.295 259.155 339.723 258.26C340.155 257.36 340.757 256.659 341.528 256.157C342.303 255.65 343.208 255.396 344.242 255.396C344.839 255.396 345.428 255.496 346.009 255.695C346.591 255.893 347.121 256.217 347.598 256.664C348.075 257.107 348.455 257.693 348.739 258.424C349.022 259.155 349.164 260.055 349.164 261.124V261.869H340.334V260.348H347.374C347.374 259.702 347.245 259.125 346.986 258.618C346.733 258.111 346.37 257.711 345.898 257.417C345.43 257.124 344.878 256.977 344.242 256.977C343.541 256.977 342.935 257.151 342.422 257.499C341.915 257.842 341.525 258.29 341.252 258.842C340.978 259.393 340.841 259.985 340.841 260.616V261.631C340.841 262.496 340.991 263.229 341.289 263.831C341.592 264.427 342.012 264.882 342.549 265.195C343.086 265.504 343.71 265.658 344.421 265.658C344.883 265.658 345.301 265.593 345.674 265.464C346.052 265.33 346.377 265.131 346.651 264.867C346.924 264.599 347.136 264.266 347.285 263.868L348.985 264.345C348.806 264.922 348.505 265.429 348.083 265.866C347.66 266.299 347.138 266.637 346.517 266.881C345.895 267.119 345.197 267.239 344.421 267.239ZM352.051 267V255.545H353.751V257.276H353.871C354.08 256.709 354.457 256.249 355.004 255.896C355.551 255.543 356.168 255.366 356.854 255.366C356.983 255.366 357.144 255.369 357.338 255.374C357.532 255.379 357.679 255.386 357.778 255.396V257.186C357.719 257.171 357.582 257.149 357.368 257.119C357.159 257.084 356.938 257.067 356.705 257.067C356.148 257.067 355.651 257.184 355.213 257.417C354.781 257.646 354.437 257.964 354.184 258.372C353.935 258.775 353.811 259.234 353.811 259.751V267H352.051ZM361.557 271.295C361.258 271.295 360.992 271.271 360.759 271.221C360.525 271.176 360.364 271.131 360.274 271.087L360.722 269.536C361.149 269.645 361.527 269.685 361.855 269.655C362.183 269.625 362.474 269.478 362.728 269.215C362.986 268.956 363.222 268.536 363.436 267.955L363.764 267.06L359.528 255.545H361.437L364.599 264.673H364.719L367.881 255.545H369.79L364.927 268.67C364.709 269.262 364.438 269.752 364.115 270.14C363.791 270.532 363.416 270.823 362.989 271.012C362.566 271.201 362.089 271.295 361.557 271.295Z" fill="white"/>
</svg>
